<?xml version="1.0" encoding="UTF-8" standalone="no"?>
<svg
   width="101"
   height="100"
   viewBox="0 0 101 100"
   fill="none"
   version="1.1"
   id="svg103"
   sodipodi:docname="add-work-school.svg"
   xmlns:inkscape="http://www.inkscape.org/namespaces/inkscape"
   xmlns:sodipodi="http://sodipodi.sourceforge.net/DTD/sodipodi-0.dtd"
   xmlns="http://www.w3.org/2000/svg"
   xmlns:svg="http://www.w3.org/2000/svg">
  <sodipodi:namedview
     id="namedview103"
     pagecolor="#ffffff"
     bordercolor="#000000"
     borderopacity="0.25"
     inkscape:showpageshadow="2"
     inkscape:pageopacity="0.0"
     inkscape:pagecheckerboard="0"
     inkscape:deskcolor="#d1d1d1" />
  <mask
     id="mask0_13105_199823"
     maskUnits="userSpaceOnUse"
     x="0"
     y="0"
     width="101"
     height="100">
    <path
       d="m 100.875,0 h -100 v 100 h 100 z"
       fill="#ffffff"
       id="path1" />
  </mask>
  <g
     mask="url(#mask0_13105_199823)"
     id="g86">
    <path
       d="m 100.875,0 h -100 v 100 h 100 z"
       fill="#ffffff"
       id="path2" />
    <path
       d="m 80.875,-45.625 h -60 c -2.4162,0 -4.375,1.9588 -4.375,4.375 v 130 c 0,2.4162 1.9588,4.375 4.375,4.375 h 60 c 2.4162,0 4.375,-1.9588 4.375,-4.375 v -130 c 0,-2.4162 -1.9588,-4.375 -4.375,-4.375 z"
       fill="#ffffff"
       stroke="#9a9a9a"
       stroke-width="2"
       id="path3" />
    <path
       d="M 62.9449,83.9062 H 38.2227 c -0.6904,0 -1.25,0.5597 -1.25,1.25 v 0.2223 c 0,0.6903 0.5596,1.25 1.25,1.25 h 24.7222 c 0.6904,0 1.25,-0.5597 1.25,-1.25 v -0.2223 c 0,-0.6903 -0.5596,-1.25 -1.25,-1.25 z"
       fill="#9a9a9a"
       id="path4" />
    <path
       d="M 77.5938,36.875 H 24.1562 c -0.3451,0 -0.625,0.2798 -0.625,0.625 V 45 c 0,0.3452 0.2799,0.625 0.625,0.625 h 53.4376 c 0.3451,0 0.625,-0.2798 0.625,-0.625 v -7.5 c 0,-0.3452 -0.2799,-0.625 -0.625,-0.625 z"
       fill="#f2f2f2"
       id="path5" />
    <g
       filter="url(#filter0_d_13105_199823)"
       id="g7">
      <path
         d="m 79.6496,48.6406 h -57.55 c -0.5178,0 -0.9375,0.4198 -0.9375,0.9375 v 9.95 c 0,0.5178 0.4197,0.9375 0.9375,0.9375 h 57.55 c 0.5178,0 0.9375,-0.4197 0.9375,-0.9375 v -9.95 c 0,-0.5177 -0.4197,-0.9375 -0.9375,-0.9375 z"
         fill="#ffffff"
         stroke="#0078d4"
         id="path6" />
      <path
         d="m 25.9544,54.0508 c 0,-0.5523 0.5015,-1 1.12,-1 0.6186,0 1.12,0.4477 1.12,1 0,0.5523 -0.5014,1 -1.12,1 -0.6185,0 -1.12,-0.4477 -1.12,-1 z m 1.12,-0.5 c -0.3092,0 -0.56,0.2239 -0.56,0.5 0,0.2761 0.2508,0.5 0.56,0.5 0.3093,0 0.56,-0.2239 0.56,-0.5 0,-0.2761 -0.2507,-0.5 -0.56,-0.5 z m -1.2907,2 c -0.1854,0 -0.3868,0.1188 -0.4037,0.3284 -0.0126,0.1573 0.003,0.461 0.2575,0.7263 0.2589,0.27 0.7112,0.4453 1.4369,0.4453 0.7258,0 1.1781,-0.1753 1.437,-0.4453 0.2545,-0.2653 0.2701,-0.569 0.2575,-0.7263 -0.0169,-0.2096 -0.2183,-0.3284 -0.4038,-0.3284 z m 0.2792,0.7295 c -0.0704,-0.0734 -0.1037,-0.1555 -0.1175,-0.2295 h 2.2581 c -0.0138,0.074 -0.0471,0.1561 -0.1175,0.2295 -0.1143,0.1192 -0.3798,0.2705 -1.0116,0.2705 -0.6317,0 -0.8972,-0.1513 -1.0115,-0.2705 z m 2.6438,-4.7295 h 0.3277 c 0.464,0 0.84,0.3358 0.84,0.75 v 5 c 0,0.4142 -0.376,0.75 -0.84,0.75 h -3.92 c -0.4639,0 -0.84,-0.3358 -0.84,-0.75 v -5 c 0,-0.4142 0.3761,-0.75 0.84,-0.75 h 0.3278 c 0.1153,-0.2913 0.4265,-0.5 0.7922,-0.5 h 1.68 c 0.3658,0 0.677,0.2087 0.7923,0.5 z m -3.2645,0.5 h -0.3278 c -0.1546,0 -0.28,0.1119 -0.28,0.25 v 5 c 0,0.138 0.1254,0.25 0.28,0.25 h 3.92 c 0.1547,0 0.28,-0.112 0.28,-0.25 v -5 c 0,-0.1381 -0.1253,-0.25 -0.28,-0.25 h -0.3277 c -0.1153,0.2913 -0.4265,0.5 -0.7923,0.5 h -1.68 c -0.3657,0 -0.6769,-0.2087 -0.7922,-0.5 z m 0.5122,-0.25 c 0,0.138 0.1254,0.25 0.28,0.25 h 1.68 c 0.1547,0 0.28,-0.112 0.28,-0.25 0,-0.1381 -0.1253,-0.25 -0.28,-0.25 h -1.68 c -0.1546,0 -0.28,0.1119 -0.28,0.25 z"
         fill="#0078d4"
         id="path7" />
    </g>
    <path
       d="M 77.5938,63.125 H 24.1562 c -0.3451,0 -0.625,0.2798 -0.625,0.625 v 7.5 c 0,0.3452 0.2799,0.625 0.625,0.625 h 53.4376 c 0.3451,0 0.625,-0.2798 0.625,-0.625 v -7.5 c 0,-0.3452 -0.2799,-0.625 -0.625,-0.625 z"
       fill="#f2f2f2"
       id="path8" />
    <path
       fill-rule="evenodd"
       clip-rule="evenodd"
       d="m 75.4459,62.88 c -0.34,0.1188 -0.64,0.3206 -0.8887,0.5819 l -0.03,-0.1175 c -0.3638,-1.447 -1.6625,-2.2751 -2.895,-1.8454 -0.6238,0.2175 -1.1119,0.7149 -1.3957,1.3416 -0.5281,-0.3434 -1.1687,-0.4478 -1.7918,-0.23 -0.34,0.1182 -0.64,0.3207 -0.8882,0.5813 L 66.774,60.0838 c -0.3637,-1.4473 -1.6631,-2.2749 -2.8956,-1.8453 -1.232,0.4296 -1.9388,1.9565 -1.5747,3.4038 l 2.8841,11.4596 c -2.4752,-0.15 -2.7826,-0.0431 -2.9561,0.0175 -0.3924,0.1369 -1.5875,0.5531 -1.6037,2.7219 -0.0075,0.9425 0.8534,1.5593 1.5755,1.9743 l 7.1337,4.6194 0.0643,0.0369 c 1.6194,0.7969 3.4038,0.865 5.3038,0.2025 3.73,-1.3013 6.9187,-4.9019 5.6325,-10.0163 L 78.3409,64.725 c -0.3637,-1.4469 -1.6625,-2.2746 -2.895,-1.845 z"
       fill="#f8f7f7"
       id="path9" />
    <path
       fill-rule="evenodd"
       clip-rule="evenodd"
       d="m 79.054,73.1063 c 1.4413,5.7262 -4.0931,7.8356 -4.7293,8.0575 -1.6063,0.5593 -3.0375,0.5175 -4.3744,-0.13 l -7.1304,-4.6163 c -0.5982,-0.3444 -0.795,-0.5669 -0.8525,-0.6475 0.0252,-0.9237 0.3392,-1.0337 0.6334,-1.1362 0.1011,-0.0263 0.6491,-0.0957 3.4582,0.1037 l 0.9532,0.0681 -3.425,-13.6109 c -0.155,-0.6144 0.1468,-1.2626 0.6712,-1.4459 0.525,-0.1828 1.0775,0.1677 1.2325,0.7822 l 1.365,5.4259 1.1794,4.6869 1.2831,-0.4475 -1.165,-4.6294 c -0.1544,-0.6144 0.1469,-1.2631 0.6713,-1.4456 0.5243,-0.1832 1.0762,0.1668 1.2318,0.7793 l 1.1657,4.6319 1.2831,-0.4475 -1.165,-4.6294 c -0.1544,-0.6143 0.1469,-1.2631 0.6719,-1.4456 0.5243,-0.1831 1.0775,0.1669 1.2318,0.7819 l 0.4794,1.9044 0.1475,0.5875 0.5381,2.1375 1.2832,-0.4475 -0.5375,-2.1369 c -0.1544,-0.615 0.1462,-1.2631 0.6712,-1.4463 0.5244,-0.1825 1.0775,0.1682 1.2325,0.7825 z M 75.4459,62.88 c -0.34,0.1188 -0.64,0.3206 -0.8887,0.5819 l -0.03,-0.1175 c -0.3638,-1.447 -1.6625,-2.2751 -2.895,-1.8454 -0.6238,0.2175 -1.1119,0.7149 -1.3957,1.3416 -0.5281,-0.3434 -1.1687,-0.4478 -1.7918,-0.23 -0.34,0.1182 -0.64,0.3207 -0.8882,0.5813 L 66.774,60.0838 c -0.3637,-1.4473 -1.6631,-2.2749 -2.8956,-1.8453 -1.232,0.4296 -1.9388,1.9565 -1.5747,3.4038 l 2.8841,11.4596 c -2.4752,-0.15 -2.7826,-0.0431 -2.9561,0.0175 -0.3924,0.1369 -1.5875,0.5531 -1.6037,2.7219 -0.0075,0.9425 0.8534,1.5593 1.5755,1.9743 l 7.1337,4.6194 0.0643,0.0369 c 1.6194,0.7969 3.4038,0.865 5.3038,0.2025 3.73,-1.3013 6.9187,-4.9019 5.6325,-10.0163 L 78.3409,64.725 c -0.3637,-1.4469 -1.6625,-2.2746 -2.895,-1.845 z"
       fill="#000000"
       id="path10" />
    <path
       d="m 50.6987,22.9651 c 7.825,0 14.1681,-6.3525 14.1681,-14.1886 0,-7.836159 -6.3431,-14.18861 -14.1681,-14.18861 -7.825,0 -14.1684,6.352451 -14.1684,14.18861 0,7.8361 6.3434,14.1886 14.1684,14.1886 z"
       fill="#bcecff"
       id="path11" />
    <path
       d="m 56.142,12.3946 c 0.2389,1.8704 -0.5213,3.3711 -0.8253,3.8931 C 53.2317,19.92 48.4535,19.92 48.106,19.92 44.479,19.8765 39.5488,17.4187 39.3533,13.2427 39.1579,9.32781 42.7632,5.95657 47.411,5.71732 c 4.2135,-0.21749 8.2749,3.04499 8.731,6.67728 z"
       fill="#3a312e"
       id="path12" />
    <path
       d="m 44.0879,18.2909 c 0.1737,0.1088 0.3475,0.1958 0.543,0.3045 0.2823,0.1305 0.5647,0.2393 0.8253,0.3263 l 0.2606,-1.2615 c -0.4995,0.1957 -1.1511,0.435 -1.6289,0.6307 z"
       fill="#f7b548"
       id="path13" />
    <path
       d="m 49.1056,21.3599 c 0.0217,-1.4355 0.3258,-2.5665 0.999,-3.3713 -1.4334,-2.6534 -4.8867,-2.3272 -5.7772,1.5225 -0.1955,0.8918 -0.0106,0.7311 -0.3147,2.0144 0,0 0.9426,0.5093 2.4879,0.9955 1.5453,0.4862 2.8802,0.506 2.8802,0.506 -0.1304,-0.7613 -0.1884,-1.4931 -0.2752,-1.6671 z"
       fill="url(#paint0_radial_13105_199823)"
       id="path14"
       style="fill:url(#paint0_radial_13105_199823)" />
    <path
       d="m 50.1874,23.0834 c 0,0 1.768,-0.0093 2.8755,-0.213 1.0771,-0.1981 2.6899,-0.7936 2.6899,-0.7936 0.0451,-0.0186 0.3313,-0.1432 0.3313,-0.1432 0.1828,-0.0744 0.2544,-0.0956 0.591,-0.2761 -0.0652,-0.8918 -0.207,-1.2554 -0.3373,-1.9297 -0.7819,-3.6974 -4.3655,-4.0454 -6.2333,-1.7834 0.3909,0.7177 0.6299,1.653 0.6299,2.7839 0.0217,0.261 -0.2864,1.2894 -0.547,2.3551 z"
       fill="#66aee5"
       id="path15" />
    <path
       d="m 50.9305,20.7505 c 0,-0.4567 -0.0869,-0.8917 -0.1955,-1.2832 l 0.0217,-0.0218 H 50.735 C 50.5612,18.88 50.3223,18.4015 50.1051,17.9883 l -3.0406,1.4572 1.8895,1.8923 c 0,0 0,0 0,0.0217 0.0869,0.1958 0.2806,0.9245 0.411,1.664 l 0.6477,0.0518 h 0.6478 c 0.2606,-1.0874 0.2916,-2.0855 0.27,-2.3248 z"
       fill="#66aee5"
       id="path16" />
    <path
       d="m 47.1808,4.25869 c 2.3609,-0.10315 4.1743,-2.49254 4.0505,-5.33685 -0.1238,-2.8443 -2.1382,-5.06646 -4.499,-4.96331 -2.3609,0.10314 -4.1744,2.49253 -4.0505,5.336836 0.1238,2.844314 2.1381,5.066464 4.499,4.963324 z"
       fill="#3a312e"
       id="path17" />
    <path
       d="M 55.0789,9.2207 C 51.6255,3.54402 51.9947,0.238043 51.0174,-2.52419 c -1.542,-4.41523 -7.0586,-4.17598 -8.2749,0.4785 -0.7167,2.762229 -0.0651,6.39445 -2.8017,12.33219 -0.5647,1.2832 16.0937,0.4785 15.1381,-1.0658 z"
       fill="#3a312e"
       id="path18" />
    <path
       d="m 38.919,8.82653 -0.2389,-0.261 c -0.1738,-0.19575 -0.3041,-0.348 -0.4126,-0.45675 -0.1087,-0.087 -0.1738,-0.10875 -0.239,-0.0435 -0.0651,0.06525 -0.0651,0.15225 -0.0217,0.261 0.1304,0.36975 0.2607,0.67425 0.391,0.93525 0.0869,0.174 -0.934,1.04397 0.456,1.89217 0.1304,0.0653 0.1087,-0.348 0.2607,-0.696 C 39.2882,10.088 38.919,8.82653 38.919,8.82653 Z"
       fill="#bf8f68"
       id="path19" />
    <path
       d="m 34.2715,6.37138 c 0,-0.087 0.1737,-0.34799 0.2389,-0.36974 l 0.8905,-0.348 C 35.466,5.63189 35.618,5.5884 35.7267,5.6319 c 0.0868,0.0435 0.1737,0.15224 0.2388,0.23924 l 3.0407,3.84974 c 0.0652,0.087 0.1303,0.174 0.1303,0.261 0,0.08702 -0.2606,0.36972 -0.304,0.41322 l -0.7602,0.261 c -0.0651,0.0218 -0.1303,0.0218 -0.2172,-0.0217 -0.0869,-0.0435 -0.1737,-0.1088 -0.2389,-0.1958 L 34.467,6.67588 c -0.0869,-0.087 -0.1955,-0.2175 -0.1955,-0.3045 z"
       fill="#808a93"
       id="path20" />
    <path
       d="m 34.2497,6.43454 c -0.0217,-0.06525 0,-0.1305 0.0435,-0.15225 l 0.847,-0.34798 c 0.0435,-0.02175 0.1086,0 0.1955,0.0435 0.0868,0.0435 0.1737,0.1305 0.2389,0.2175 l 3.1058,3.80619 c 0.0651,0.087 0.1086,0.174 0.1303,0.2393 0.0217,0.087 0,0.1305 -0.0434,0.1522 l -0.8471,0.348 c -0.0434,0.0218 -0.1085,0 -0.1954,-0.0435 -0.0869,-0.0435 -0.1738,-0.1087 -0.239,-0.1957 l -3.084,-3.80626 c -0.0869,-0.087 -0.1303,-0.174 -0.1521,-0.261 z"
       fill="#485560"
       id="path21" />
    <path
       d="M 35.0536,6.69634 C 34.9884,6.65284 34.9233,6.60934 34.8798,6.54402 34.8364,6.47877 34.793,6.41352 34.7712,6.34827 c -0.0217,-0.06531 0,-0.08706 0.0434,-0.10879 0.0435,-0.02176 0.0869,0 0.1521,0.02173 0.0651,0.04356 0.1303,0.08706 0.1738,0.15231 0.0651,0.06525 0.0868,0.13051 0.1085,0.19582 0.0218,0.06525 0,0.087 -0.0434,0.10875 -0.0435,0.02175 -0.0869,0.02175 -0.152,-0.02175 z"
       fill="#808a93"
       id="path22" />
    <path
       d="m 36.0957,7.71731 c 0.1303,0.02175 -0.0217,0.6525 -0.0217,0.6525 l 0.0869,0.3045 0.3257,-0.2175 c 0,0 0.5647,-0.087 0.7168,-0.087 0.1737,0 0.4126,0.32625 0.4778,0.3915 0.0651,0.087 0.2823,0.45675 0.2606,0.5655 -0.0652,0.174 -0.3258,0.3915 -0.3258,0.3915 0,0 -0.3909,0.36979 -0.3041,0.30449 0.2607,-0.21749 0.9557,0.0653 1.0425,0.4568 0.0435,0.174 0.3475,0.3045 0.3475,0.3045 l -0.3257,0.3045 c 0,0 -0.2389,-0.174 -0.3258,-0.2393 -0.2606,-0.174 -0.6298,-0.1087 -1.2814,-0.2827 -0.0652,-0.0218 -0.4778,-0.2175 -0.4995,-0.2828 -0.0217,-0.0652 -0.4779,-1.13099 -0.4561,-1.26149 0,-0.0435 -0.1086,-0.522 -0.0869,-0.609 0.0217,-0.19575 0.1738,-0.7395 0.3692,-0.696 z"
       fill="#bf8f68"
       id="path23" />
    <path
       d="m 42.9375,12.0268 c 0.4344,-0.2393 0.4127,-0.7395 0.8036,-2.39248 0.5647,-2.32725 0.9556,-3.89325 2.1719,-4.89374 0.5647,-0.45674 1.1511,-0.65249 1.4334,-0.73949 0.1738,-0.06525 1.933,-0.63075 2.4325,-0.0435 0.4345,0.522 -0.0434,1.89223 -1.2813,3.30598 -0.1304,0.71775 -0.3475,1.6965 -0.7819,2.80573 -0.7819,1.9357 -1.7158,4.3065 -3.6705,4.8285 -2.8669,0.7612 -6.0596,-3.0668 -5.7555,-3.7845 0.0434,-0.1088 0.3257,-0.522 0.8253,-0.8047 0.0651,-0.0218 0.1086,-0.0653 0.152,-0.0653 2.4326,2.175 3.3447,1.9792 3.6705,1.7835 z"
       fill="url(#paint1_radial_13105_199823)"
       id="path24"
       style="fill:url(#paint1_radial_13105_199823)" />
    <path
       d="M 56.0768,18.8333 C 56.0116,18.3548 55.903,17.6588 55.599,16.8541 55.1211,15.5491 54.4913,14.8096 54.1655,14.3311 53.5573,13.3959 53.0578,11.8082 53.7311,8.87191 53.97,7.87141 53.9483,7.34941 53.8831,6.71866 53.6442,4.67419 51.4941,3.0212 48.3448,3.73895 46.8462,4.08694 45.782,4.63069 45.1956,5.52243 c -0.6081,0.91348 -0.5865,1.87048 -0.5865,2.80573 0.0218,1.392 0.3693,2.08804 0.9557,5.11124 0.0652,0.3914 0.1738,0.9134 0.0435,1.5877 0,0.0435 -0.0218,0.087 -0.0218,0.1305 -0.1303,0.5655 -0.304,0.9787 -0.5212,1.3702 -0.3693,0.7613 -0.7602,1.392 -0.9774,1.7618 1.3683,-0.3915 2.5194,-0.4785 3.3013,-0.4785 0.9122,0 1.6289,0.087 2.1067,0.1957 1.0208,0.1958 1.6072,0.522 2.9755,0.7395 1.4769,0.2175 2.7583,0.174 3.6054,0.087 z"
       fill="url(#paint2_radial_13105_199823)"
       id="path25"
       style="fill:url(#paint2_radial_13105_199823)" />
    <path
       d="m 54.817,13.3314 c -0.9122,-1.8922 -1.9547,-3.2407 -2.8235,-4.32823 -0.999,-1.23975 -1.8244,-2.1315 -1.8244,-2.1315 0.0217,-0.36975 -0.0217,-0.89172 -0.304,-1.34846 -0.543,-0.89175 -1.629,-0.957 -1.5855,-1.32675 0.0217,-0.32625 0.7819,-0.54374 1.1511,-0.58724 0.2606,-0.0435 0.5213,-0.02175 0.695,-0.02175 0,0 0.3692,0.02175 0.7384,0.087 0.6516,0.13049 1.6941,0.65249 2.1719,1.02224 1.1077,0.8265 3.2796,3.76271 4.6696,8.59119 0.8904,3.0667 0.9339,5.1982 0.8253,6.6772 -0.0434,0.5655 -0.0485,0.3745 -0.0919,0.7007 -0.2984,0.178 -0.5937,0.4164 -1.1047,0.6644 -0.1955,-0.9135 -0.5843,-2.2568 -1.0187,-3.7358 -0.5647,-1.8923 -0.8688,-2.9363 -1.4986,-4.263 z"
       fill="#0078d4"
       id="path26" />
    <path
       d="m 35.2702,5.24013 h -0.0217 c -0.0869,0 -0.1303,-0.06526 -0.1303,-0.13051 V 2.49964 c 0,-0.087 0.0651,-0.1305 0.1303,-0.1305 h 0.0217 c 0.0868,0 0.1303,0.06525 0.1303,0.1305 v 2.60998 c 0.0217,0.06525 -0.0435,0.13051 -0.1303,0.13051 z"
       fill="#ffb900"
       id="path27" />
    <path
       d="m 34.4663,5.17702 -0.0434,0.02175 c -0.0651,0.0435 -0.1303,0.02175 -0.1737,-0.0435 l -1.086,-1.87048 c -0.0434,-0.06525 -0.0217,-0.1305 0.0435,-0.174 l 0.0434,-0.02175 c 0.0652,-0.0435 0.1303,-0.02175 0.1737,0.0435 l 1.086,1.87048 c 0.0434,0.06525 0.0217,0.1305 -0.0435,0.174 z"
       fill="#ffe399"
       id="path28" />
    <path
       d="M 36.2261,5.19718 36.1827,5.17542 C 36.1175,5.15367 36.0958,5.06667 36.1175,5.02317 l 0.847,-1.80523 c 0.0218,-0.06525 0.1087,-0.087 0.1521,-0.06525 L 37.16,3.17444 c 0.0652,0.02175 0.0869,0.10875 0.0652,0.15225 l -0.847,1.80524 c -0.0218,0.06525 -0.0869,0.087 -0.1521,0.06525 z"
       fill="#ffe399"
       id="path29" />
    <path
       d="m 49.9523,3.56665 c -0.3475,0 -0.6516,-0.261 -0.695,-0.60899 L 48.9315,0.826172 46.8248,1.15242 47.1506,3.26215 c 0.0651,0.45675 0.0434,0.696 -0.391,1.0005 -0.3475,0.15225 -0.6515,0.348 -0.8905,0.54375 0.695,0.15225 1.6724,0.19574 2.476,0.02175 0.6515,-0.1305 2.1936,-0.9135 2.476,-1.131 -0.2606,-0.087 -0.5647,-0.10875 -0.8688,-0.1305 z"
       fill="url(#paint3_linear_13105_199823)"
       id="path30"
       style="fill:url(#paint3_linear_13105_199823)" />
    <path
       d="m 44.8411,2.15728 c 0.278,-0.0751 0.44,-0.37103 0.3619,-0.66097 C 45.1248,1.20636 44.8361,1.0322 44.5582,1.1073 c -0.2779,0.0751 -0.4399,0.37103 -0.3618,0.66097 0.0781,0.28994 0.3667,0.46411 0.6447,0.38901 z"
       fill="#ffffff"
       id="path31" />
    <path
       d="m 49.1921,-1.87432 c 0.5647,2.000986 -0.152,3.95847 -1.5854,4.37172 -1.4552,0.41325 -3.0842,-0.87 -3.6705,-2.87098 -0.5647,-2.00099 0.1954,-3.78447 1.6506,-4.19772 1.4552,-0.3915 3.0406,0.69599 3.6053,2.69698 z"
       fill="#bf8f68"
       id="path32" />
    <path
       d="m 45.8689,-2.69727 0.239,1.08749 c 0.1085,0.5655 -0.0652,1.022248 -0.2172,1.283246 -0.0869,0.152249 -0.0652,0.456747 0.1303,0.587246 0.1086,0.06525 0.4995,0.173999 0.5864,0.434997 L 46.868,1.6962 44.8699,2.28345 43.7188,-2.13177 Z"
       fill="url(#paint4_radial_13105_199823)"
       id="path33"
       style="fill:url(#paint4_radial_13105_199823)" />
    <path
       d="m 46.391,1.14995 c 0.1085,0 0.1737,-0.04351 0.2606,-0.06526 0.0869,-0.04351 0.1737,-0.06527 0.2388,-0.130529 0.0869,-0.043512 0.1521,-0.087019 0.239,-0.130531 0.0651,-0.043506 0.1303,-0.087019 0.1954,-0.174031 l 0.0218,-0.021757 c 0.0217,-0.04351 0.0651,-0.04351 0.1085,-0.021755 l 0.0218,0.021755 c 0.0434,0.065263 0.0434,0.174038 0.0217,0.2393 -0.0217,0.087019 -0.0435,0.152278 -0.0869,0.195788 -0.0869,0.10877 -0.1954,0.19579 -0.3041,0.26106 -0.1303,0.06526 -0.2606,0.10877 -0.3909,0.10877 -0.1303,0 -0.3041,-0.04351 -0.3909,-0.17404 -0.0217,-0.04351 -0.0217,-0.08702 0.0217,-0.10877 0,0.02175 0,0 0.0435,0 z"
       fill="#9b643d"
       id="path34" />
    <path
       d="m 49.9417,0.594774 c 0.2779,-0.0751 0.4399,-0.371025 0.3618,-0.660967 -0.0781,-0.289942 -0.3667,-0.464107 -0.6447,-0.389007 -0.278,0.075099 -0.4399,0.3710244 -0.3618,0.660967 0.0781,0.289942 0.3668,0.464106 0.6447,0.389007 z"
       fill="#ffffff"
       id="path35" />
    <path
       d="m 32.1325,13.4182 c 1.1622,-10e-5 2.2946,0.3688 3.2343,1.0536 0.9398,0.6849 1.6385,1.6505 1.9958,2.758 0.3573,1.1076 0.3547,2.3 -0.0073,3.406 -0.3621,1.106 -1.065,2.0686 -2.0076,2.7494 -0.9041,0.6542 -2.0147,0.1728 -3.2152,0.1728 -1.0343,0 -2.002,0.5807 -2.8279,0.0832 -1.0305,-0.6194 -1.8299,-1.56 -2.2757,-2.6777 -0.4459,-1.1177 -0.5135,-2.351 -0.1927,-3.5109 0.3208,-1.1599 1.0125,-2.1826 1.9691,-2.9113 0.9566,-0.7287 2.1253,-1.123 3.3272,-1.1231 z"
       fill="#a7edf1"
       id="path36" />
    <path
       d="m 34.7683,14.5898 h -5.0264 c -0.0575,0 -0.1143,0.0114 -0.1673,0.0334 -0.0531,0.022 -0.1013,0.0542 -0.1419,0.0948 -0.0406,0.0407 -0.0728,0.089 -0.0948,0.1421 -0.0219,0.0531 -0.0332,0.1101 -0.0332,0.1676 v 8.6141 c 0.1484,0.0893 0.3012,0.1715 0.4584,0.2468 l 0.6176,-8.2589 c 0,-0.1622 -0.2562,-0.2832 -0.0943,-0.2832 h 3.8648 c 0.1619,0 0.2828,-0.0677 0.2828,0.0945 l 0.3158,8.3211 c 0.1565,-0.0849 0.3088,-0.1769 0.4557,-0.2763 v -8.458 c 10e-5,-0.0575 -0.0113,-0.1144 -0.0332,-0.1675 -0.022,-0.0532 -0.0542,-0.1015 -0.0947,-0.1421 -0.0407,-0.0407 -0.0889,-0.073 -0.1419,-0.095 -0.0531,-0.022 -0.11,-0.0334 -0.1674,-0.0334 z"
       fill="#797674"
       id="path37" />
    <path
       d="m 34.4689,15.082 h -4.4 c -0.0385,0 -0.0766,0.0076 -0.1123,0.0223 -0.0355,0.0148 -0.0678,0.0364 -0.0951,0.0637 -0.0272,0.0273 -0.0488,0.0597 -0.0636,0.0952 -0.0147,0.0356 -0.0223,0.0738 -0.0223,0.1124 l -0.0129,8.5146 c 0.7824,0.3736 1.6418,0.557 2.5084,0.535 0.8665,-0.0219 1.7155,-0.2484 2.4781,-0.6612 l 0.0127,-8.3887 C 34.7618,15.2975 34.7309,15.223 34.676,15.168 34.621,15.113 34.5465,15.0821 34.4689,15.082 Z"
       fill="#dde3e8"
       id="path38" />
    <path
       d="m 31.4201,15.4669 h 1.6685 c 0.0421,3e-4 0.084,-0.0077 0.123,-0.0237 0.0391,-0.016 0.0745,-0.0396 0.1043,-0.0695 0.0299,-0.0299 0.0535,-0.0655 0.0695,-0.1046 0.016,-0.039 0.024,-0.081 0.0237,-0.1232 v -0.0378 c 3e-4,-0.0422 -0.0077,-0.0842 -0.0237,-0.1232 -0.016,-0.0392 -0.0396,-0.0747 -0.0695,-0.1046 -0.0298,-0.0299 -0.0652,-0.0535 -0.1043,-0.0695 -0.039,-0.016 -0.0809,-0.0241 -0.123,-0.0237 h -1.6685 c -0.0422,-4e-4 -0.084,0.0077 -0.123,0.0237 -0.0391,0.016 -0.0745,0.0396 -0.1044,0.0695 -0.0298,0.0299 -0.0535,0.0654 -0.0694,0.1046 -0.016,0.039 -0.0241,0.081 -0.0237,0.1232 v 0.0378 c 9e-4,0.0848 0.035,0.166 0.0948,0.226 0.06,0.06 0.141,0.0941 0.2257,0.095 z"
       fill="#797674"
       id="path39" />
    <path
       d="m 32.0527,15.2767 h 0.6787 c 0.0161,-0.0016 0.031,-0.0094 0.0415,-0.0217 0.0105,-0.0123 0.016,-0.0282 0.0151,-0.0443 9e-4,-0.0162 -0.0046,-0.0321 -0.0151,-0.0444 -0.0105,-0.0123 -0.0254,-0.0201 -0.0415,-0.0218 h -0.6787 c -0.016,0.0017 -0.0309,0.0095 -0.0414,0.0218 -0.0105,0.0123 -0.0159,0.0282 -0.0151,0.0444 0,0.0377 0.0188,0.066 0.0565,0.066 z"
       fill="#605e5b"
       id="path40" />
    <path
       d="m 31.7793,15.2767 c 0.0313,0 0.0566,-0.0295 0.0566,-0.066 0,-0.0365 -0.0253,-0.0662 -0.0566,-0.0662 -0.0313,0 -0.0566,0.0297 -0.0566,0.0662 0,0.0365 0.0253,0.066 0.0566,0.066 z"
       fill="#605e5b"
       id="path41" />
    <path
       d="m 34.1965,15.7148 h -3.883 c -0.05,0 -0.0979,0.0199 -0.1333,0.0554 -0.0353,0.0353 -0.0552,0.0834 -0.0552,0.1335 v 8.1451 c 0.6814,0.2667 1.409,0.395 2.1404,0.3773 0.7313,-0.0178 1.4519,-0.181 2.1196,-0.4804 v -8.042 c 0,-0.0501 -0.0199,-0.0982 -0.0552,-0.1335 -0.0354,-0.0355 -0.0833,-0.0554 -0.1333,-0.0554 z"
       fill="#ffffff"
       id="path42" />
    <path
       d="m 30.502,16.262 h 2.6676 V 16.0488 H 30.502 Z"
       fill="#aeb9c1"
       id="path43" />
    <path
       d="m 30.502,17.8167 h 2.6676 V 17.6035 H 30.502 Z"
       fill="#aeb9c1"
       id="path44" />
    <path
       d="M 33.9519,16.6191 H 30.502 v 0.2132 h 3.4499 z"
       fill="#dde3e8"
       id="path45" />
    <path
       d="M 33.9519,18.1738 H 30.502 v 0.2132 h 3.4499 z"
       fill="#dde3e8"
       id="path46" />
    <path
       d="M 33.9519,17.1914 H 30.502 v 0.2132 h 3.4499 z"
       fill="#dde3e8"
       id="path47" />
    <path
       d="M 33.9519,18.7422 H 30.502 v 0.2132 h 3.4499 z"
       fill="#dde3e8"
       id="path48" />
    <path
       d="m 30.502,21.9437 h 2.6676 V 21.7305 H 30.502 Z"
       fill="#dde3e8"
       id="path49" />
    <path
       d="m 30.502,20.2386 h 1.2253 V 20.0254 H 30.502 Z"
       fill="#aeb9c1"
       id="path50" />
    <path
       d="M 33.9519,20.5918 H 30.502 v 0.2132 h 3.4499 z"
       fill="#dde3e8"
       id="path51" />
    <path
       d="M 33.9519,21.1602 H 30.502 v 0.2131 h 3.4499 z"
       fill="#dde3e8"
       id="path52" />
    <path
       d="m 30.502,24.2093 h 2.6676 V 23.9961 H 30.502 Z"
       fill="#dde3e8"
       id="path53" />
    <path
       d="M 33.9519,22.8574 H 30.502 v 0.2133 h 3.4499 z"
       fill="#dde3e8"
       id="path54" />
    <path
       d="M 33.9519,23.4258 H 30.502 v 0.2132 h 3.4499 z"
       fill="#dde3e8"
       id="path55" />
    <path
       d="m 33.2725,23.8927 h 4.8916 l 0.9642,-2.819 c 0.0352,-0.1071 -0.0471,-0.226 -0.1529,-0.226 h -4.5036 c -0.094,0 -0.1763,0.0595 -0.1998,0.1427 z"
       fill="#c8c6c4"
       id="path56" />
    <path
       d="m 31.2811,24.3257 h 6.8054 c 0.0962,0 0.1803,-0.1015 0.1803,-0.2176 0,-0.116 -0.0841,-0.2175 -0.1803,-0.2175 h -6.8054 c -0.0962,0 -0.1803,0.1015 -0.1803,0.2175 -0.012,0.1161 0.0721,0.2176 0.1803,0.2176 z"
       fill="#b4b0ac"
       id="path57" />
    <path
       d="m 33.9522,22.0456 c 0.8803,0 1.5938,-0.7145 1.5938,-1.596 0,-0.8815 -0.7135,-1.5961 -1.5938,-1.5961 -0.8802,0 -1.5938,0.7146 -1.5938,1.5961 0,0.8815 0.7136,1.596 1.5938,1.596 z"
       fill="#2f80ed"
       id="path58" />
    <path
       d="m 33.3982,20.3825 c 0.0189,-0.0324 0.0189,-0.0695 0.0095,-0.1065 -0.0095,-0.0325 -0.0331,-0.0603 -0.0661,-0.0742 -0.0331,-0.0139 -0.0661,-0.0185 -0.0992,-0.0047 l -0.0802,0.0279 c 0.0613,-0.2549 0.2502,-0.468 0.5051,-0.5514 0.3257,-0.1112 0.6939,0 0.8969,0.2734 l 0.0283,0.037 0.2549,-0.088 -0.0472,-0.0649 c -0.2644,-0.3938 -0.7647,-0.556 -1.2179,-0.4031 -0.3257,0.1112 -0.5664,0.3707 -0.6608,0.6811 L 32.8932,20.035 c -0.0095,-0.0324 -0.0331,-0.0602 -0.0662,-0.0742 -0.033,-0.0138 -0.066,-0.0185 -0.0991,-0.0046 -0.066,0.0232 -0.1038,0.0973 -0.0802,0.1622 l 0.1747,0.4957 0.5003,-0.1714 c 0.033,-0.0092 0.0613,-0.0324 0.0755,-0.0602 z"
       fill="#ffffff"
       id="path59" />
    <path
       d="m 35.1158,20.6956 -0.164,-0.4944 -0.4743,0.171 c -0.0311,0.0092 -0.0576,0.0323 -0.0709,0.0647 -0.0133,0.0323 -0.0178,0.0646 -0.0045,0.097 0.0089,0.0323 0.031,0.0601 0.0621,0.074 0.031,0.0138 0.0621,0.0184 0.0931,0.0046 l 0.0842,-0.0324 c -0.0532,0.2588 -0.2305,0.476 -0.4788,0.5638 -0.3058,0.1109 -0.6515,0 -0.8421,-0.2727 l -0.0266,-0.0369 -0.2393,0.0877 0.0443,0.0647 c 0.1861,0.2912 0.4964,0.4575 0.82,0.4575 0.1064,0 0.2172,-0.0185 0.3236,-0.0554 0.3058,-0.1109 0.5318,-0.3651 0.6161,-0.6747 l 0.0221,0.0601 c 0.0089,0.0323 0.0311,0.0601 0.0621,0.0739 0.0177,0.0093 0.0354,0.0139 0.0532,0.0139 0.0133,0 0.0266,0 0.0398,-0.0046 0.0311,-0.0093 0.0577,-0.0324 0.071,-0.0647 0.0177,-0.0323 0.0222,-0.0647 0.0089,-0.0971 z"
       fill="#ffffff"
       id="path60" />
    <path
       d="m 66.3855,-0.858919 c 1.875,-2.37e-4 3.7013,0.594713 5.2169,1.699338 1.5156,1.104621 2.6425,2.662041 3.2187,4.448411 0.5763,1.78635 0.5725,3.70973 -0.0118,5.49357 -0.5838,1.7838 -1.7175,3.3364 -3.2375,4.4345 -1.4588,1.0551 -3.25,0.2786 -5.1863,0.2786 -1.6681,0 -3.2288,0.9367 -4.5609,0.1342 -1.6622,-0.999 -2.9516,-2.516 -3.6707,-4.3188 -0.7191,-1.80284 -0.8282,-3.79197 -0.3107,-5.66283 0.5175,-1.87084 1.6331,-3.52024 3.176,-4.695564 1.5429,-1.175323 3.4282,-1.811319 5.3663,-1.811425 z"
       fill="#a7edf1"
       id="path61" />
    <path
       fill-rule="evenodd"
       clip-rule="evenodd"
       d="m 62.046,0.357422 c -0.3559,0.200107 -0.699,0.42547 -1.0268,0.675148 -1.5429,1.17532 -2.6585,2.82472 -3.176,4.69556 -0.5175,1.87082 -0.4084,3.86001 0.3107,5.66277 0.7191,1.8028 2.0085,3.3199 3.6707,4.3188 0.3517,0.2119 0.7194,0.3026 1.1007,0.3212 1.2346,-2.1051 1.9427,-4.5572 1.9427,-7.17494 0,-3.18759 -1.05,-6.12968 -2.822,-8.498538 z"
       fill="#59dce3"
       id="path62" />
    <path
       d="m 70.6363,1.03125 h -8.107 c -0.0926,-2e-5 -0.1843,0.01823 -0.2698,0.05371 -0.0856,0.03548 -0.1633,0.0875 -0.2288,0.15307 -0.0655,0.06558 -0.1174,0.14343 -0.1529,0.22911 -0.0354,0.08569 -0.0536,0.17752 -0.0536,0.27026 v 13.8938 c 0.2393,0.144 0.4858,0.2766 0.7393,0.3981 l 0.996,-13.32083 c 0,-0.26157 -0.413,-0.45676 -0.1519,-0.45676 h 6.2337 c 0.2607,0 0.4557,-0.10932 0.4557,0.15225 l 0.5093,13.42134 c 0.2525,-0.1371 0.4988,-0.2854 0.7357,-0.4457 V 1.73771 C 71.342,1.64494 71.3232,1.55309 71.2882,1.46738 71.2526,1.38167 71.2007,1.30379 71.1351,1.23818 71.0695,1.17258 70.992,1.12054 70.9063,1.08503 70.8207,1.04953 70.7295,1.03125 70.6363,1.03125 Z"
       fill="#797674"
       id="path63" />
    <path
       d="m 70.1539,1.82227 h -7.0966 c -0.0621,-2e-5 -0.1236,0.01221 -0.181,0.036 -0.0574,0.02378 -0.1095,0.05866 -0.1535,0.10263 -0.0439,0.04397 -0.0787,0.09617 -0.1025,0.15363 -0.0238,0.05746 -0.036,0.11905 -0.036,0.18124 L 62.5635,16.029 c 1.2617,0.6027 2.6479,0.8984 4.0454,0.863 1.3981,-0.0354 2.7675,-0.4008 3.9975,-1.0666 L 70.627,2.29532 C 70.6264,2.16984 70.577,2.04954 70.4883,1.96084 70.3995,1.87215 70.2795,1.8223 70.1539,1.82227 Z"
       fill="#dde3e8"
       id="path64" />
    <path
       d="m 65.2372,2.44585 h 2.6907 C 67.996,2.44642 68.0635,2.43341 68.1266,2.4076 68.1897,2.38179 68.2466,2.34368 68.2947,2.2955 68.3429,2.24731 68.381,2.19002 68.4066,2.12696 68.4322,2.0639 68.4454,1.99633 68.4447,1.92819 V 1.86729 C 68.4454,1.79915 68.4322,1.73158 68.4066,1.66851 68.381,1.60545 68.3429,1.54816 68.2947,1.49998 68.2466,1.4518 68.1897,1.41369 68.1266,1.38787 68.0635,1.36206 67.996,1.34906 67.9279,1.34963 h -2.6907 c -0.0681,-5.7e-4 -0.1356,0.01243 -0.1987,0.03824 -0.0631,0.02582 -0.12,0.06393 -0.1682,0.11211 -0.0481,0.04818 -0.0862,0.10547 -0.1118,0.16853 -0.0263,0.06307 -0.0388,0.13064 -0.0388,0.19878 v 0.0609 c 0.0019,0.13685 0.0569,0.26769 0.1532,0.36446 0.0968,0.09678 0.2275,0.15177 0.3643,0.1532 z"
       fill="#797674"
       id="path65" />
    <path
       d="m 66.2565,2.14094 h 1.0944 C 67.3772,2.13828 67.4009,2.12573 67.4178,2.10589 67.4347,2.08605 67.4434,2.06043 67.4422,2.03433 67.4434,2.00824 67.4347,1.98262 67.4178,1.96278 67.4009,1.94295 67.3772,1.9304 67.3509,1.92773 h -1.0944 c -0.0262,0.00267 -0.05,0.01522 -0.0668,0.03505 -0.0175,0.01984 -0.0263,0.04546 -0.0244,0.07155 0,0.06092 0.03,0.10661 0.0912,0.10661 z"
       fill="#605e5b"
       id="path66" />
    <path
       d="m 65.8149,2.14094 c 0.0506,0 0.0912,-0.04773 0.0912,-0.10661 0,-0.05886 -0.0406,-0.1066 -0.0912,-0.1066 -0.05,0 -0.0913,0.04774 -0.0913,0.1066 0,0.05888 0.0413,0.10661 0.0913,0.10661 z"
       fill="#605e5b"
       id="path67" />
    <path
       d="m 69.7143,2.8418 h -6.2625 c -0.0809,0 -0.1582,0.03208 -0.2153,0.08918 -0.057,0.05711 -0.089,0.13456 -0.089,0.21532 v 13.1373 c 1.0993,0.4303 2.2724,0.6371 3.4524,0.6086 1.1794,-0.0286 2.3419,-0.292 3.4187,-0.7748 V 3.1463 c 0,-0.08076 -0.0325,-0.15821 -0.0893,-0.21532 C 69.8724,2.87388 69.7949,2.8418 69.7143,2.8418 Z"
       fill="#ffffff"
       id="path68" />
    <path
       d="m 63.7549,3.73253 h 4.3025 V 3.38867 h -4.3025 z"
       fill="#aeb9c1"
       id="path69" />
    <path
       d="m 69.3193,4.30859 h -5.5644 v 0.34387 h 5.5644 z"
       fill="#dde3e8"
       id="path70" />
    <path
       d="m 69.3193,5.22266 h -5.5644 v 0.34386 h 5.5644 z"
       fill="#dde3e8"
       id="path71" />
    <path
       d="m 63.7549,12.8888 h 4.3025 v -0.3439 h -4.3025 z"
       fill="#dde3e8"
       id="path72" />
    <path
       d="m 63.7549,10.1427 h 1.9762 V 9.79883 h -1.9762 z"
       fill="#aeb9c1"
       id="path73" />
    <path
       d="m 69.3193,10.7148 h -5.5644 v 0.3439 h 5.5644 z"
       fill="#dde3e8"
       id="path74" />
    <path
       d="m 69.3193,11.6328 h -5.5644 v 0.3439 h 5.5644 z"
       fill="#dde3e8"
       id="path75" />
    <path
       d="m 63.7549,16.545 h 4.3025 v -0.3438 h -4.3025 z"
       fill="#dde3e8"
       id="path76" />
    <path
       d="m 69.3193,14.3711 h -5.5644 v 0.3439 h 5.5644 z"
       fill="#dde3e8"
       id="path77" />
    <path
       d="m 69.3193,15.2871 h -5.5644 v 0.3439 h 5.5644 z"
       fill="#dde3e8"
       id="path78" />
    <path
       d="m 66.4597,8.6555 c 0.3231,0 0.6419,0.0255 0.9569,0.0765 0.3168,0.051 0.6275,0.12756 0.9325,0.22956 v 0.30613 c 0,0.30131 -0.045,0.59225 -0.135,0.87291 -0.0907,0.2805 -0.2182,0.5412 -0.3838,0.7819 -0.1644,0.2407 -0.3625,0.4552 -0.5956,0.6433 -0.2313,0.1881 -0.4894,0.3404 -0.775,0.4568 -0.2838,-0.1148 -0.5419,-0.2663 -0.775,-0.4544 -0.2331,-0.1897 -0.4325,-0.4041 -0.5981,-0.6433 -0.1638,-0.2392 -0.2913,-0.499 -0.3813,-0.7796 -0.09,-0.28055 -0.135,-0.57074 -0.135,-0.87043 0,-0.02075 0.0013,-0.04468 0.0044,-0.07175 0.0037,-0.02712 0.0069,-0.055 0.01,-0.08368 0.005,-0.02875 0.0094,-0.05663 0.0125,-0.08375 0.005,-0.02706 0.0087,-0.05181 0.0125,-0.07413 0.3031,-0.102 0.6075,-0.17856 0.9125,-0.22956 0.305,-0.051 0.6175,-0.0765 0.9375,-0.0765 z m 0.63,2.1427 v -0.0766 c 0,-0.0653 -0.0106,-0.1283 -0.0325,-0.1889 -0.0194,-0.0606 -0.0481,-0.1163 -0.0856,-0.1674 -0.0382,-0.051 -0.0832,-0.0956 -0.1357,-0.1339 -0.0525,-0.0383 -0.1106,-0.0678 -0.1743,-0.0885 0.0837,-0.0382 0.1493,-0.0948 0.1968,-0.16978 0.0488,-0.07493 0.0738,-0.157 0.0738,-0.24631 0,-0.06375 -0.0125,-0.12356 -0.0369,-0.17937 -0.025,-0.05575 -0.0581,-0.10438 -0.1012,-0.14588 -0.0425,-0.04144 -0.0925,-0.07412 -0.15,-0.098 -0.0575,-0.02394 -0.1188,-0.03587 -0.1844,-0.03587 -0.0656,0 -0.1269,0.01193 -0.1844,0.03587 -0.0575,0.02388 -0.1075,0.05656 -0.15,0.098 -0.0431,0.0415 -0.0769,0.09013 -0.1012,0.14588 -0.0244,0.05581 -0.0369,0.11562 -0.0369,0.17937 0,0.08931 0.0237,0.17138 0.0712,0.24631 0.0494,0.07498 0.1157,0.13158 0.1994,0.16978 -0.0637,0.0207 -0.1219,0.0502 -0.1744,0.0885 -0.0525,0.0383 -0.0981,0.0829 -0.1356,0.1339 -0.0375,0.0511 -0.0675,0.1068 -0.0887,0.1674 -0.0194,0.0606 -0.0294,0.1236 -0.0294,0.1889 v 0.0766 z m -0.63,-3.21407 c -0.1081,0 -0.2106,0.01993 -0.3075,0.05981 -0.095,0.03981 -0.1788,0.09481 -0.2513,0.165 -0.0706,0.06856 -0.1262,0.14981 -0.1668,0.24387 -0.0413,0.0925 -0.0619,0.19131 -0.0619,0.29656 l -0.4725,0.0765 v -0.0765 c 0,-0.169 0.0331,-0.32762 0.0987,-0.47587 0.0669,-0.14831 0.1575,-0.27744 0.2707,-0.38744 0.115,-0.11156 0.2481,-0.19925 0.4012,-0.26306 0.1525,-0.06531 0.3156,-0.098 0.4894,-0.098 0.1737,0 0.3369,0.03269 0.4894,0.098 0.1525,0.06381 0.2856,0.1515 0.3987,0.26306 0.115,0.11 0.205,0.23913 0.2706,0.38744 0.0675,0.14825 0.1007,0.30687 0.1007,0.47587 v 0.0765 l -0.4719,-0.0765 c 0,-0.10525 -0.0206,-0.20406 -0.0619,-0.29656 C 67.1447,7.95875 67.0878,7.8775 67.0159,7.80894 66.9453,7.73875 66.8616,7.68375 66.7647,7.64394 66.6697,7.60406 66.5678,7.58413 66.4597,7.58413 Z"
       fill="#2f80ed"
       id="path79" />
    <path
       d="m 31.9957,-9.37469 c 1.1623,-1.9e-4 2.2947,0.36869 3.2344,1.05357 0.9398,0.68487 1.6385,1.65043 1.9958,2.758 0.3572,1.10755 0.3547,2.30001 -0.0073,3.40601 -0.3621,1.106 -1.065,2.0685776 -2.0076,2.749386 -0.9041,0.654164 -2.0147,0.172742 -3.2153,0.172742 -1.0343,0 -2.0019,0.580732 -2.8278,0.083169 -1.0305,-0.619353 -1.83,-1.559925 -2.2758,-2.677657 -0.4458,-1.11773 -0.5135,-2.351 -0.1927,-3.51092 0.3209,-1.15992 1.0126,-2.18255 1.9692,-2.91123 0.9565,-0.72869 2.1253,-1.12301 3.3271,-1.12307 z"
       fill="#a7edf1"
       id="path80" />
    <path
       d="m 34.6316,-8.20312 h -5.0264 c -0.0575,-7e-5 -0.1143,0.01125 -0.1674,0.03325 -0.053,0.022 -0.1012,0.05425 -0.1418,0.09493 -0.0406,0.04063 -0.0728,0.08894 -0.0948,0.14207 -0.0219,0.05312 -0.0332,0.11006 -0.0332,0.16756 v 8.614067 c 0.1483,0.089299 0.3012,0.171583 0.4583,0.246853 l 0.6177,-8.25886 c 0,-0.16219 -0.2562,-0.28319 -0.0943,-0.28319 h 3.8648 c 0.1618,0 0.2828,-0.06781 0.2828,0.09438 l 0.3157,8.321172 c 0.1565,-0.084956 0.309,-0.1769 0.4558,-0.276299 V -7.76512 c 0,-0.05757 -0.0113,-0.1145 -0.0332,-0.16763 -0.022,-0.05312 -0.0542,-0.10144 -0.0948,-0.14212 -0.0406,-0.04063 -0.0888,-0.07294 -0.1418,-0.09494 -0.0531,-0.022 -0.11,-0.03331 -0.1674,-0.03331 z"
       fill="#797674"
       id="path81" />
    <path
       d="m 34.3322,-7.71289 h -4.4 c -0.0385,0 -0.0767,0.00762 -0.1123,0.02231 -0.0355,0.01475 -0.0679,0.03638 -0.0951,0.06369 -0.0273,0.02725 -0.0488,0.05962 -0.0636,0.09525 -0.0147,0.03562 -0.0223,0.07381 -0.0223,0.11237 L 29.626,1.09531 c 0.7824,0.37364 1.6418,0.55696 2.5084,0.53503 0.8665,-0.02194 1.7155,-0.24849 2.4781,-0.661243 l 0.0127,-8.388677 c -10e-5,-0.07781 -0.031,-0.15237 -0.0859,-0.20737 -0.0549,-0.055 -0.1294,-0.08588 -0.2071,-0.08594 z"
       fill="#dde3e8"
       id="path82" />
    <path
       d="m 34.0588,-7.08008 h -3.8829 c -0.05,0 -0.098,0.01988 -0.1333,0.05531 -0.0354,0.03538 -0.0553,0.08344 -0.0553,0.1335 v 8.14513 c 0.6814,0.26674 1.409,0.39499 2.1404,0.3773 0.7314,-0.0177 1.4519,-0.181 2.1196,-0.48038 v -8.04205 c 0,-0.05006 -0.0199,-0.09812 -0.0552,-0.1335 -0.0354,-0.03543 -0.0833,-0.05531 -0.1333,-0.05531 z"
       fill="#ffffff"
       id="path83" />
    <path
       d="m 30.3652,1.41437 h 2.6677 v -0.2132 h -2.6677 z"
       fill="#dde3e8"
       id="path84" />
    <path
       d="m 33.8152,0.0664062 h -3.45 V 0.2796 h 3.45 z"
       fill="#dde3e8"
       id="path85" />
    <path
       d="m 33.8152,0.636719 h -3.45 v 0.213193 h 3.45 z"
       fill="#dde3e8"
       id="path86" />
  </g>
  <defs
     id="defs103">
    <filter
       id="filter0_d_13105_199823"
       x="18.6621"
       y="47.140598"
       width="64.424797"
       height="16.8242"
       filterUnits="userSpaceOnUse"
       color-interpolation-filters="sRGB">
      <feFlood
         flood-opacity="0"
         result="BackgroundImageFix"
         id="feFlood86" />
      <feColorMatrix
         in="SourceAlpha"
         type="matrix"
         values="0 0 0 0 0 0 0 0 0 0 0 0 0 0 0 0 0 0 127 0"
         result="hardAlpha"
         id="feColorMatrix86" />
      <feOffset
         dy="1"
         id="feOffset86" />
      <feGaussianBlur
         stdDeviation="1"
         id="feGaussianBlur86" />
      <feComposite
         in2="hardAlpha"
         operator="out"
         id="feComposite86" />
      <feColorMatrix
         type="matrix"
         values="0 0 0 0 0 0 0 0 0 0 0 0 0 0 0 0 0 0 0.12 0"
         id="feColorMatrix87" />
      <feBlend
         mode="normal"
         in2="BackgroundImageFix"
         result="effect1_dropShadow_13105_199823"
         id="feBlend87" />
      <feBlend
         mode="normal"
         in="SourceGraphic"
         in2="effect1_dropShadow_13105_199823"
         result="shape"
         id="feBlend88" />
    </filter>
    <radialGradient
       id="paint0_radial_13105_199823"
       cx="0"
       cy="0"
       r="1"
       gradientUnits="userSpaceOnUse"
       gradientTransform="matrix(14.3729,0,0,11.2858,55.5716,29.8312)">
      <stop
         offset="0.179"
         stop-color="#0078D4"
         id="stop88" />
      <stop
         offset="0.4258"
         stop-color="#238ADA"
         id="stop89" />
      <stop
         offset="0.8057"
         stop-color="#53A4E2"
         id="stop90" />
      <stop
         offset="0.9944"
         stop-color="#66AEE5"
         id="stop91" />
    </radialGradient>
    <radialGradient
       id="paint1_radial_13105_199823"
       cx="0"
       cy="0"
       r="1"
       gradientUnits="userSpaceOnUse"
       gradientTransform="matrix(5.73661,0,0,5.74479,48.6063,12.6963)">
      <stop
         stop-color="#016FC4"
         id="stop92" />
      <stop
         offset="0.9997"
         stop-color="#0078D4"
         id="stop93" />
    </radialGradient>
    <radialGradient
       id="paint2_radial_13105_199823"
       cx="0"
       cy="0"
       r="1"
       gradientUnits="userSpaceOnUse"
       gradientTransform="matrix(6.85056,0,0,6.86031,57.1177,10.9349)">
      <stop
         stop-color="#0163AF"
         id="stop94" />
      <stop
         offset="0.9997"
         stop-color="#0078D4"
         id="stop95" />
    </radialGradient>
    <linearGradient
       id="paint3_linear_13105_199823"
       x1="47.322399"
       y1="1.58255"
       x2="49.1376"
       y2="6.18995"
       gradientUnits="userSpaceOnUse">
      <stop
         stop-color="#9B643D"
         id="stop96" />
      <stop
         offset="0.1122"
         stop-color="#AA764F"
         id="stop97" />
      <stop
         offset="0.2496"
         stop-color="#B6845D"
         id="stop98" />
      <stop
         offset="0.4182"
         stop-color="#BD8D66"
         id="stop99" />
      <stop
         offset="0.7065"
         stop-color="#BF8F68"
         id="stop100" />
    </linearGradient>
    <radialGradient
       id="paint4_radial_13105_199823"
       cx="0"
       cy="0"
       r="1"
       gradientUnits="userSpaceOnUse"
       gradientTransform="matrix(-1.2612743,0.46658455,-0.49247758,-1.3312685,46.2189,-0.029295)">
      <stop
         offset="0.000320513"
         stop-color="#9B643D"
         id="stop101" />
      <stop
         offset="0.8822"
         stop-color="#BA8A63"
         stop-opacity="0.1178"
         id="stop102" />
      <stop
         offset="1"
         stop-color="#BF8F68"
         stop-opacity="0"
         id="stop103" />
    </radialGradient>
  </defs>
</svg>
