<svg xmlns="http://www.w3.org/2000/svg" width="32" height="32" viewBox="0 0 32 32" fill="none">
  <path d="M16 20H10V18.8281C10 18.4323 10.0729 18.0521 10.2188 17.6875C10.3333 17.3958 10.5052 17.1146 10.7344 16.8438C10.9635 16.5729 11.224 16.2969 11.5156 16.0156C11.8073 15.7344 12.0938 15.474 12.375 15.2344C12.6562 14.9948 12.9219 14.7396 13.1719 14.4688C13.4219 14.1979 13.6198 13.9531 13.7656 13.7344C13.9115 13.5156 13.9896 13.2708 14 13C14 12.7292 13.901 12.4948 13.7031 12.2969C13.5052 12.099 13.2708 12 13 12C12.7604 12 12.5521 12.0729 12.375 12.2188C12.1979 12.3646 12.0781 12.5573 12.0156 12.7969L10.0625 12.3906C10.125 12.0469 10.2448 11.7292 10.4219 11.4375C10.599 11.1458 10.8281 10.8958 11.1094 10.6875C11.3906 10.4792 11.6875 10.3125 12 10.1875C12.3125 10.0625 12.6458 10 13 10C13.4167 10 13.8073 10.0781 14.1719 10.2344C14.5365 10.3906 14.8542 10.6042 15.125 10.875C15.3958 11.1458 15.6094 11.4635 15.7656 11.8281C15.9219 12.1927 16 12.5833 16 13C16 13.4062 15.9427 13.7708 15.8281 14.0938C15.7135 14.4167 15.5521 14.7188 15.3438 15C15.1354 15.2812 14.9062 15.5469 14.6562 15.7969C14.4062 16.0469 14.1406 16.2865 13.8594 16.5156C13.5781 16.7448 13.3125 16.9844 13.0625 17.2344C12.8125 17.4844 12.5677 17.7396 12.3281 18H16V20ZM32 4V26H0V4H32ZM30 6H2V24H30V6ZM6.20312 12.2969C5.90104 12.474 5.54688 12.6354 5.14062 12.7812C4.73438 12.9271 4.35417 13 4 13V11C4.11458 11 4.27604 10.9688 4.48438 10.9062C4.69271 10.8438 4.90104 10.7656 5.10938 10.6719C5.31771 10.5781 5.50521 10.4688 5.67188 10.3438C5.83854 10.2188 5.95312 10.1042 6.01562 10H8V20H6.20312V12.2969ZM20.625 20C20.1875 20 19.7656 19.9271 19.3594 19.7812C18.9531 19.6354 18.5625 19.4427 18.1875 19.2031V17.2188C18.3958 17.375 18.5781 17.5104 18.7344 17.625C18.8906 17.7396 19.0573 17.8333 19.2344 17.9062C19.4115 17.9792 19.5885 18.0312 19.7656 18.0625C19.9427 18.0938 20.1771 18.1094 20.4688 18.1094C20.6979 18.1094 20.9167 18.0885 21.125 18.0469C21.3333 18.0052 21.5156 17.9271 21.6719 17.8125C21.8281 17.6979 21.9583 17.5521 22.0625 17.375C22.1667 17.1979 22.2135 16.9792 22.2031 16.7188C22.2031 16.3958 22.0781 16.1667 21.8281 16.0312C21.5781 15.8958 21.2865 15.8021 20.9531 15.75C20.6198 15.6979 20.2812 15.6823 19.9375 15.7031C19.5938 15.724 19.3177 15.7344 19.1094 15.7344V14.2188H20.0156C20.3385 14.2188 20.6406 14.1823 20.9219 14.1094C21.2031 14.0365 21.4375 13.901 21.625 13.7031C21.8125 13.5052 21.9062 13.2083 21.9062 12.8125C21.9062 12.375 21.776 12.0833 21.5156 11.9375C21.2552 11.7917 20.9219 11.7188 20.5156 11.7188C20.099 11.7188 19.7396 11.8125 19.4375 12C19.1354 12.1875 18.8333 12.4115 18.5312 12.6719V10.6406C18.8854 10.401 19.2812 10.2344 19.7188 10.1406C20.1562 10.0469 20.5833 10 21 10C21.375 10 21.7396 10.0521 22.0938 10.1562C22.4479 10.2604 22.7604 10.4115 23.0312 10.6094C23.3021 10.8073 23.526 11.0625 23.7031 11.375C23.8802 11.6875 23.9635 12.0469 23.9531 12.4531C23.9531 12.9531 23.8542 13.3958 23.6562 13.7812C23.4583 14.1667 23.1354 14.4844 22.6875 14.7344C23.1458 14.8906 23.5208 15.1667 23.8125 15.5625C24.1042 15.9583 24.25 16.401 24.25 16.8906C24.25 17.3802 24.1458 17.8177 23.9375 18.2031C23.7292 18.5885 23.4583 18.9115 23.125 19.1719C22.7917 19.4323 22.401 19.6354 21.9531 19.7812C21.5052 19.9271 21.0625 20 20.625 20Z" fill="#323130"/>
</svg>