<svg xmlns="http://www.w3.org/2000/svg" width="512" height="512" fill="none" viewBox="0 0 512 512"><path fill="url(#3f45fccb781f4ec48dbfc7407f3be1c1-a)" d="M78.095 116.466c-7.036 51.663-7.306 139.618 30.849 212.6 41.534 79.445 106.815 120.672 140.633 134.485a17.09 17.09 0 0 0 12.934.002c32.949-13.431 98.197-53.475 140.494-134.487 38.219-73.2 37.943-160.941 30.893-212.597-2.085-15.271-13.655-27.165-28.512-31.263L276.78 49.734a77.998 77.998 0 0 0-41.467-.003l-128.712 35.48c-14.856 4.095-26.426 15.986-28.506 31.255Z"/><path fill="url(#3f45fccb781f4ec48dbfc7407f3be1c1-b)" fill-opacity=".8" d="M78.095 116.466c-7.036 51.663-7.306 139.618 30.849 212.6 41.534 79.445 106.815 120.672 140.633 134.485a17.09 17.09 0 0 0 12.934.002c32.949-13.431 98.197-53.475 140.494-134.487 38.219-73.2 37.943-160.941 30.893-212.597-2.085-15.271-13.655-27.165-28.512-31.263L276.78 49.734a77.998 77.998 0 0 0-41.467-.003l-128.712 35.48c-14.856 4.095-26.426 15.986-28.506 31.255Z"/><path fill="url(#3f45fccb781f4ec48dbfc7407f3be1c1-c)" fill-opacity=".8" d="M78.095 116.466c-7.036 51.663-7.306 139.618 30.849 212.6 41.534 79.445 106.815 120.672 140.633 134.485a17.09 17.09 0 0 0 12.934.002c32.949-13.431 98.197-53.475 140.494-134.487 38.219-73.2 37.943-160.941 30.893-212.597-2.085-15.271-13.655-27.165-28.512-31.263L276.78 49.734a77.998 77.998 0 0 0-41.467-.003l-128.712 35.48c-14.856 4.095-26.426 15.986-28.506 31.255Z"/><path fill="url(#3f45fccb781f4ec48dbfc7407f3be1c1-d)" d="M78.095 116.466c-7.036 51.663-7.306 139.618 30.849 212.6 41.534 79.445 106.815 120.672 140.633 134.485a17.09 17.09 0 0 0 12.934.002c32.949-13.431 98.197-53.475 140.494-134.487 38.219-73.2 37.943-160.941 30.893-212.597-2.085-15.271-13.655-27.165-28.512-31.263L276.78 49.734a77.998 77.998 0 0 0-41.467-.003l-128.712 35.48c-14.856 4.095-26.426 15.986-28.506 31.255Z"/><path fill="url(#3f45fccb781f4ec48dbfc7407f3be1c1-e)" d="M78.095 116.466c-7.036 51.663-7.306 139.618 30.849 212.6 41.534 79.445 106.815 120.672 140.633 134.485a17.09 17.09 0 0 0 12.934.002c32.949-13.431 98.197-53.475 140.494-134.487 38.219-73.2 37.943-160.941 30.893-212.597-2.085-15.271-13.655-27.165-28.512-31.263L276.78 49.734a77.998 77.998 0 0 0-41.467-.003l-128.712 35.48c-14.856 4.095-26.426 15.986-28.506 31.255Z"/><path fill="url(#3f45fccb781f4ec48dbfc7407f3be1c1-f)" d="M142.458 157.131c-4.577 32.724-4.978 89.493 19.411 136.143 24.788 47.415 62.934 74.312 85.171 84.692a18.865 18.865 0 0 0 15.985 0c21.792-10.14 59.868-36.415 85.074-84.692 24.429-46.789 24.023-103.418 19.438-136.141-1.279-9.133-8.219-16.219-17.122-18.623l-90.173-24.352a20.002 20.002 0 0 0-10.425 0l-90.241 24.355c-8.902 2.402-15.841 9.486-17.118 18.618Z"/><path fill="url(#3f45fccb781f4ec48dbfc7407f3be1c1-g)" d="M142.458 157.131c-4.577 32.724-4.978 89.493 19.411 136.143 24.788 47.415 62.934 74.312 85.171 84.692a18.865 18.865 0 0 0 15.985 0c21.792-10.14 59.868-36.415 85.074-84.692 24.429-46.789 24.023-103.418 19.438-136.141-1.279-9.133-8.219-16.219-17.122-18.623l-90.173-24.352a20.002 20.002 0 0 0-10.425 0l-90.241 24.355c-8.902 2.402-15.841 9.486-17.118 18.618Z"/><path fill="url(#3f45fccb781f4ec48dbfc7407f3be1c1-h)" d="M142.458 157.131c-4.577 32.724-4.978 89.493 19.411 136.143 24.788 47.415 62.934 74.312 85.171 84.692a18.865 18.865 0 0 0 15.985 0c21.792-10.14 59.868-36.415 85.074-84.692 24.429-46.789 24.023-103.418 19.438-136.141-1.279-9.133-8.219-16.219-17.122-18.623l-90.173-24.352a20.002 20.002 0 0 0-10.425 0l-90.241 24.355c-8.902 2.402-15.841 9.486-17.118 18.618Z"/><path fill="url(#3f45fccb781f4ec48dbfc7407f3be1c1-i)" fill-opacity=".6" d="M142.458 157.131c-4.577 32.724-4.978 89.493 19.411 136.143 24.788 47.415 62.934 74.312 85.171 84.692a18.865 18.865 0 0 0 15.985 0c21.792-10.14 59.868-36.415 85.074-84.692 24.429-46.789 24.023-103.418 19.438-136.141-1.279-9.133-8.219-16.219-17.122-18.623l-90.173-24.352a20.002 20.002 0 0 0-10.425 0l-90.241 24.355c-8.902 2.402-15.841 9.486-17.118 18.618Z"/><path fill="url(#3f45fccb781f4ec48dbfc7407f3be1c1-j)" d="M142.458 157.131c-4.577 32.724-4.978 89.493 19.411 136.143 24.788 47.415 62.934 74.312 85.171 84.692a18.865 18.865 0 0 0 15.985 0c21.792-10.14 59.868-36.415 85.074-84.692 24.429-46.789 24.023-103.418 19.438-136.141-1.279-9.133-8.219-16.219-17.122-18.623l-90.173-24.352a20.002 20.002 0 0 0-10.425 0l-90.241 24.355c-8.902 2.402-15.841 9.486-17.118 18.618Z"/><path fill="url(#3f45fccb781f4ec48dbfc7407f3be1c1-k)" d="M142.458 157.131c-4.577 32.724-4.978 89.493 19.411 136.143 24.788 47.415 62.934 74.312 85.171 84.692a18.865 18.865 0 0 0 15.985 0c21.792-10.14 59.868-36.415 85.074-84.692 24.429-46.789 24.023-103.418 19.438-136.141-1.279-9.133-8.219-16.219-17.122-18.623l-90.173-24.352a20.002 20.002 0 0 0-10.425 0l-90.241 24.355c-8.902 2.402-15.841 9.486-17.118 18.618Z"/><path fill="url(#3f45fccb781f4ec48dbfc7407f3be1c1-l)" d="M142.458 157.131c-4.577 32.724-4.978 89.493 19.411 136.143 24.788 47.415 62.934 74.312 85.171 84.692a18.865 18.865 0 0 0 15.985 0c21.792-10.14 59.868-36.415 85.074-84.692 24.429-46.789 24.023-103.418 19.438-136.141-1.279-9.133-8.219-16.219-17.122-18.623l-90.173-24.352a20.002 20.002 0 0 0-10.425 0l-90.241 24.355c-8.902 2.402-15.841 9.486-17.118 18.618Z"/><path fill="url(#3f45fccb781f4ec48dbfc7407f3be1c1-m)" fill-rule="evenodd" d="M159.21 294.664c-24.804-47.445-24.339-104.943-19.724-137.949 1.463-10.458 9.383-18.42 19.308-21.099l90.241-24.355a23.008 23.008 0 0 1 11.989.001l90.173 24.352c9.926 2.68 17.846 10.644 19.311 21.103 4.625 33.006 5.093 90.363-19.75 137.945-25.566 48.967-64.193 75.659-86.468 86.024a21.863 21.863 0 0 1-18.519-.002c-22.725-10.607-61.416-37.923-86.561-86.02Zm2.658-1.39c-24.388-46.65-23.987-103.419-19.411-136.143 1.277-9.132 8.217-16.216 17.119-18.618l90.241-24.355a20.002 20.002 0 0 1 10.425 0l90.173 24.352c8.903 2.404 15.842 9.49 17.122 18.623 4.585 32.723 4.99 89.352-19.439 136.141-25.206 48.277-63.281 74.552-85.073 84.692a18.865 18.865 0 0 1-15.985 0c-22.237-10.38-60.383-37.277-85.172-84.692Z" clip-rule="evenodd"/><path fill="#A2E6FF" d="M326.893 95.737a2.186 2.186 0 1 0 0-4.372 2.186 2.186 0 0 0 0 4.372Zm78.765 81.402a2.186 2.186 0 1 1-4.371 0 2.186 2.186 0 0 1 4.371 0Zm-8.979 33.559a3.523 3.523 0 1 1-7.047 0 3.524 3.524 0 1 1 7.047 0Zm-42.637 155.874a3.524 3.524 0 1 1-7.049 0 3.524 3.524 0 0 1 7.049 0ZM116.916 253a3.524 3.524 0 1 0 0-7.047 3.524 3.524 0 0 0 0 7.047Zm286.556 29.209a2.186 2.186 0 1 1-4.373 0 2.186 2.186 0 0 1 4.373 0Zm-76.579 86.549a2.186 2.186 0 1 0 0-4.371 2.186 2.186 0 0 0 0 4.371ZM116.917 116.564a2.187 2.187 0 1 1-4.373-.001 2.187 2.187 0 0 1 4.373.001Zm39.583 16.854a4.045 4.045 0 1 0-.002-8.09 4.045 4.045 0 0 0 .002 8.09Zm73.644 268.433a2.187 2.187 0 1 1-4.373 0 2.187 2.187 0 0 1 4.373 0ZM101.796 237.228a2.186 2.186 0 1 0 0-4.373 2.186 2.186 0 0 0 0 4.373Z"/><path fill="url(#3f45fccb781f4ec48dbfc7407f3be1c1-n)" fill-rule="evenodd" d="M255.024 284.215c-11.925 0-21.592-9.347-21.592-20.877v-89.125c0-11.53 9.667-20.877 21.592-20.877 11.926 0 21.593 9.347 21.593 20.877v89.125c0 11.53-9.667 20.877-21.593 20.877Z" clip-rule="evenodd"/><path fill="url(#3f45fccb781f4ec48dbfc7407f3be1c1-o)" fill-opacity=".8" fill-rule="evenodd" d="M255.024 284.215c-11.925 0-21.592-9.347-21.592-20.877v-89.125c0-11.53 9.667-20.877 21.592-20.877 11.926 0 21.593 9.347 21.593 20.877v89.125c0 11.53-9.667 20.877-21.593 20.877Z" clip-rule="evenodd"/><path fill="url(#3f45fccb781f4ec48dbfc7407f3be1c1-p)" fill-opacity=".3" fill-rule="evenodd" d="M255.024 284.215c-11.925 0-21.592-9.347-21.592-20.877v-89.125c0-11.53 9.667-20.877 21.592-20.877 11.926 0 21.593 9.347 21.593 20.877v89.125c0 11.53-9.667 20.877-21.593 20.877Z" clip-rule="evenodd"/><path fill="#FEE39E" d="M247.275 162.812c.362.316 1.02.157 1.469-.356.447-.512.518-1.185.156-1.501-.363-.317-1.02-.158-1.467.355-.449.513-.52 1.185-.158 1.502Zm2.985 5.975a1.256 1.256 0 0 0 .738-1.147 1.26 1.26 0 1 0-.738 1.147Zm19.079 38.333c.071-.099.129-.208.171-.326a1.26 1.26 0 1 0-.171.326Zm1.503 35.219a1.26 1.26 0 0 1-1.542 1.229l-.088-.024-.062-.02-.048-.019-.073-.033-.083-.044a1.26 1.26 0 1 1 1.896-1.089Zm-29.872-11.945c.125-.212.201-.476.201-.763 0-.696-.44-1.26-.983-1.26-.544 0-.983.564-.983 1.26 0 .696.439 1.261.983 1.261.32 0 .603-.195.782-.498Zm7.17-55.91a.933.933 0 0 1-1.451-.373l-.025-.069a.935.935 0 0 1 .891-1.217.933.933 0 0 1 .585 1.659Zm14.74 3.707a.933.933 0 0 0 .932-.933l-.002-.071-.017-.122a.923.923 0 0 0-.173-.377.948.948 0 0 0-.74-.364.93.93 0 0 0-.935.934c0 .515.418.933.935.933Zm1.865 21.874a.933.933 0 1 1-1.867 0 .933.933 0 0 1 1.867 0Zm-15.323 21.206a.933.933 0 1 0-.003-1.867.933.933 0 0 0 .003 1.867Zm14.464 23.944a.935.935 0 0 1-1.573-.681.934.934 0 1 1 1.573.681Z"/><circle cx="254.843" cy="318.414" r="21.459" fill="url(#3f45fccb781f4ec48dbfc7407f3be1c1-q)"/><circle cx="254.843" cy="318.414" r="21.459" fill="url(#3f45fccb781f4ec48dbfc7407f3be1c1-r)" fill-opacity=".8"/><defs><radialGradient id="3f45fccb781f4ec48dbfc7407f3be1c1-a" cx="0" cy="0" r="1" gradientTransform="rotate(-53.529 499.891 -6.505) scale(386.224 750.787)" gradientUnits="userSpaceOnUse"><stop offset=".123" stop-color="#FF7A00"/><stop offset=".315" stop-color="#F90"/><stop offset=".408" stop-color="#F90"/><stop offset=".617" stop-color="#FFD438"/></radialGradient><radialGradient id="3f45fccb781f4ec48dbfc7407f3be1c1-b" cx="0" cy="0" r="1" gradientTransform="matrix(-356.85992 135.7651 -36.22792 -95.22545 182.169 24.751)" gradientUnits="userSpaceOnUse"><stop offset=".454" stop-color="#CB8600"/><stop offset=".878" stop-color="#FED238" stop-opacity="0"/></radialGradient><radialGradient id="3f45fccb781f4ec48dbfc7407f3be1c1-c" cx="0" cy="0" r="1" gradientTransform="matrix(468.96965 124.71744 -30.25324 113.75995 349.545 21.594)" gradientUnits="userSpaceOnUse"><stop offset=".53" stop-color="#CB8600"/><stop offset=".878" stop-color="#FFD439" stop-opacity="0"/></radialGradient><radialGradient id="3f45fccb781f4ec48dbfc7407f3be1c1-d" cx="0" cy="0" r="1" gradientTransform="matrix(-81.25802 -69.24164 141.57637 -166.14594 290.501 341.223)" gradientUnits="userSpaceOnUse"><stop offset=".327" stop-color="#D74F03"/><stop offset=".478" stop-color="#D74F03" stop-opacity="0"/></radialGradient><radialGradient id="3f45fccb781f4ec48dbfc7407f3be1c1-e" cx="0" cy="0" r="1" gradientTransform="matrix(124.35705 -50.5088 128.09313 315.37639 190.915 283.325)" gradientUnits="userSpaceOnUse"><stop offset=".302" stop-color="#D74F03"/><stop offset=".424" stop-color="#D74F03" stop-opacity="0"/></radialGradient><radialGradient id="3f45fccb781f4ec48dbfc7407f3be1c1-g" cx="0" cy="0" r="1" gradientTransform="matrix(8.99971 -34.00006 23.33342 6.17628 251.252 329.93)" gradientUnits="userSpaceOnUse"><stop offset=".743" stop-color="#C8C4BB"/><stop offset="1" stop-color="#F7E6B9" stop-opacity="0"/></radialGradient><radialGradient id="3f45fccb781f4ec48dbfc7407f3be1c1-h" cx="0" cy="0" r="1" gradientTransform="matrix(7.50002 -78.25 26.18719 2.50996 244.5 234.679)" gradientUnits="userSpaceOnUse"><stop offset=".717" stop-color="#C8C4BB"/><stop offset="1" stop-color="#C8C4BB" stop-opacity="0"/></radialGradient><radialGradient id="3f45fccb781f4ec48dbfc7407f3be1c1-i" cx="0" cy="0" r="1" gradientTransform="rotate(179.541 217.16 85.621) scale(223.482 406.89)" gradientUnits="userSpaceOnUse"><stop offset=".331" stop-color="#D2D3D6"/><stop offset=".529" stop-color="#EDE8E3" stop-opacity="0"/></radialGradient><radialGradient id="3f45fccb781f4ec48dbfc7407f3be1c1-j" cx="0" cy="0" r="1" gradientTransform="rotate(75.198 36.91 174.432) scale(103.245 184.026)" gradientUnits="userSpaceOnUse"><stop offset=".536" stop-color="#D0D0D0"/><stop offset=".785" stop-color="#EDE8E3" stop-opacity="0"/></radialGradient><radialGradient id="3f45fccb781f4ec48dbfc7407f3be1c1-k" cx="0" cy="0" r="1" gradientTransform="rotate(103.524 117.087 171.981) scale(92.7115 195.454)" gradientUnits="userSpaceOnUse"><stop offset=".536" stop-color="#D0D0D0"/><stop offset=".785" stop-color="#EDE8E3" stop-opacity="0"/></radialGradient><radialGradient id="3f45fccb781f4ec48dbfc7407f3be1c1-l" cx="0" cy="0" r="1" gradientTransform="matrix(-62.49992 21.03355 -13.07319 -38.84618 224 113.467)" gradientUnits="userSpaceOnUse"><stop offset=".55" stop-color="#D0D0D0"/><stop offset=".793" stop-color="#D0D0D0" stop-opacity="0"/></radialGradient><radialGradient id="3f45fccb781f4ec48dbfc7407f3be1c1-m" cx="0" cy="0" r="1" gradientTransform="rotate(135.456 165.127 124.265) scale(332.166 284.489)" gradientUnits="userSpaceOnUse"><stop stop-color="#EDEDED"/><stop offset="1" stop-color="#E7E7E7"/></radialGradient><radialGradient id="3f45fccb781f4ec48dbfc7407f3be1c1-n" cx="0" cy="0" r="1" gradientTransform="matrix(58.8892 0 0 466.668 267.784 238.877)" gradientUnits="userSpaceOnUse"><stop stop-color="#C594FF"/><stop offset=".057" stop-color="#C594FF"/><stop offset=".189" stop-color="#AD6CFF"/><stop offset=".453" stop-color="#8E42FF"/><stop offset=".933" stop-color="#AD6CFF"/></radialGradient><radialGradient id="3f45fccb781f4ec48dbfc7407f3be1c1-o" cx="0" cy="0" r="1" gradientTransform="matrix(-61.52594 169.92646 -72.9349 -26.40782 303.494 159.697)" gradientUnits="userSpaceOnUse"><stop offset=".612" stop-color="#F6EDE3" stop-opacity="0"/><stop offset=".828" stop-color="#AD6CFF"/><stop offset=".887" stop-color="#8E42FF"/><stop offset="1" stop-color="#8E42FF"/></radialGradient><radialGradient id="3f45fccb781f4ec48dbfc7407f3be1c1-p" cx="0" cy="0" r="1" gradientTransform="matrix(25.96591 36.72664 -29.20022 20.6447 264.591 163.83)" gradientUnits="userSpaceOnUse"><stop stop-color="#fff"/><stop offset=".109" stop-color="#fff"/><stop offset=".263" stop-color="#fff" stop-opacity="0"/></radialGradient><radialGradient id="3f45fccb781f4ec48dbfc7407f3be1c1-q" cx="0" cy="0" r="1" gradientTransform="rotate(120.18 40.802 229.199) scale(43.9469)" gradientUnits="userSpaceOnUse"><stop offset=".05" stop-color="#E8CCFF"/><stop offset=".23" stop-color="#C594FF"/><stop offset=".36" stop-color="#AD6CFF"/><stop offset=".51" stop-color="#8E42FF"/><stop offset=".78" stop-color="#E0538F"/></radialGradient><radialGradient id="3f45fccb781f4ec48dbfc7407f3be1c1-r" cx="0" cy="0" r="1" gradientTransform="rotate(97.82 -11.423 270.333) scale(38.0938)" gradientUnits="userSpaceOnUse"><stop offset=".45" stop-color="#fff" stop-opacity="0"/><stop offset=".84" stop-color="#fff"/></radialGradient><linearGradient id="3f45fccb781f4ec48dbfc7407f3be1c1-f" x1="356.044" x2="42.928" y1="95.757" y2="501.717" gradientUnits="userSpaceOnUse"><stop offset=".309" stop-color="#E7E7E7"/><stop offset=".637" stop-color="#FEE39E"/></linearGradient></defs></svg>