<svg xmlns="http://www.w3.org/2000/svg" width="512" height="513" fill="none"><path fill="url(#a)" d="M78.094 116.967c-7.036 51.662-7.306 139.618 30.849 212.6 41.534 79.445 106.815 120.672 140.633 134.484a17.085 17.085 0 0 0 12.934.003c32.949-13.431 98.197-53.475 140.494-134.487 38.219-73.2 37.943-160.941 30.893-212.598-2.085-15.27-13.655-27.164-28.512-31.262L276.779 50.235a78 78 0 0 0-41.467-.003L106.6 85.712c-14.856 4.094-26.426 15.986-28.506 31.255Z"/><path fill="url(#b)" fill-opacity=".9" d="M78.094 116.967c-7.036 51.662-7.306 139.618 30.849 212.6 41.534 79.445 106.815 120.672 140.633 134.484a17.085 17.085 0 0 0 12.934.003c32.949-13.431 98.197-53.475 140.494-134.487 38.219-73.2 37.943-160.941 30.893-212.598-2.085-15.27-13.655-27.164-28.512-31.262L276.779 50.235a78 78 0 0 0-41.467-.003L106.6 85.712c-14.856 4.094-26.426 15.986-28.506 31.255Z"/><path fill="url(#c)" fill-opacity=".9" d="M78.094 116.967c-7.036 51.662-7.306 139.618 30.849 212.6 41.534 79.445 106.815 120.672 140.633 134.484a17.085 17.085 0 0 0 12.934.003c32.949-13.431 98.197-53.475 140.494-134.487 38.219-73.2 37.943-160.941 30.893-212.598-2.085-15.27-13.655-27.164-28.512-31.262L276.779 50.235a78 78 0 0 0-41.467-.003L106.6 85.712c-14.856 4.094-26.426 15.986-28.506 31.255Z"/><path fill="url(#d)" fill-opacity=".6" d="M78.094 116.967c-7.036 51.662-7.306 139.618 30.849 212.6 41.534 79.445 106.815 120.672 140.633 134.484a17.085 17.085 0 0 0 12.934.003c32.949-13.431 98.197-53.475 140.494-134.487 38.219-73.2 37.943-160.941 30.893-212.598-2.085-15.27-13.655-27.164-28.512-31.262L276.779 50.235a78 78 0 0 0-41.467-.003L106.6 85.712c-14.856 4.094-26.426 15.986-28.506 31.255Z"/><path fill="url(#e)" fill-opacity=".6" d="M78.094 116.967c-7.036 51.662-7.306 139.618 30.849 212.6 41.534 79.445 106.815 120.672 140.633 134.484a17.085 17.085 0 0 0 12.934.003c32.949-13.431 98.197-53.475 140.494-134.487 38.219-73.2 37.943-160.941 30.893-212.598-2.085-15.27-13.655-27.164-28.512-31.262L276.779 50.235a78 78 0 0 0-41.467-.003L106.6 85.712c-14.856 4.094-26.426 15.986-28.506 31.255Z"/><path fill="url(#f)" d="M142.458 157.631c-4.577 32.724-4.978 89.493 19.411 136.143 24.788 47.415 62.934 74.312 85.171 84.692a18.865 18.865 0 0 0 15.985 0c21.792-10.14 59.868-36.415 85.074-84.692 24.429-46.789 24.023-103.418 19.438-136.141-1.279-9.133-8.219-16.219-17.122-18.623l-90.173-24.352a20.002 20.002 0 0 0-10.425 0l-90.241 24.355c-8.902 2.402-15.841 9.486-17.118 18.618Z"/><path fill="url(#g)" fill-opacity=".5" d="M142.458 157.631c-4.577 32.724-4.978 89.493 19.411 136.143 24.788 47.415 62.934 74.312 85.171 84.692a18.865 18.865 0 0 0 15.985 0c21.792-10.14 59.868-36.415 85.074-84.692 24.429-46.789 24.023-103.418 19.438-136.141-1.279-9.133-8.219-16.219-17.122-18.623l-90.173-24.352a20.002 20.002 0 0 0-10.425 0l-90.241 24.355c-8.902 2.402-15.841 9.486-17.118 18.618Z"/><path fill="url(#h)" fill-opacity=".3" d="M142.458 157.631c-4.577 32.724-4.978 89.493 19.411 136.143 24.788 47.415 62.934 74.312 85.171 84.692a18.865 18.865 0 0 0 15.985 0c21.792-10.14 59.868-36.415 85.074-84.692 24.429-46.789 24.023-103.418 19.438-136.141-1.279-9.133-8.219-16.219-17.122-18.623l-90.173-24.352a20.002 20.002 0 0 0-10.425 0l-90.241 24.355c-8.902 2.402-15.841 9.486-17.118 18.618Z"/><path fill="url(#i)" fill-opacity=".3" d="M142.458 157.631c-4.577 32.724-4.978 89.493 19.411 136.143 24.788 47.415 62.934 74.312 85.171 84.692a18.865 18.865 0 0 0 15.985 0c21.792-10.14 59.868-36.415 85.074-84.692 24.429-46.789 24.023-103.418 19.438-136.141-1.279-9.133-8.219-16.219-17.122-18.623l-90.173-24.352a20.002 20.002 0 0 0-10.425 0l-90.241 24.355c-8.902 2.402-15.841 9.486-17.118 18.618Z"/><path fill="url(#j)" fill-opacity=".8" d="M142.458 157.631c-4.577 32.724-4.978 89.493 19.411 136.143 24.788 47.415 62.934 74.312 85.171 84.692a18.865 18.865 0 0 0 15.985 0c21.792-10.14 59.868-36.415 85.074-84.692 24.429-46.789 24.023-103.418 19.438-136.141-1.279-9.133-8.219-16.219-17.122-18.623l-90.173-24.352a20.002 20.002 0 0 0-10.425 0l-90.241 24.355c-8.902 2.402-15.841 9.486-17.118 18.618Z"/><path fill="url(#k)" fill-opacity=".6" d="M142.458 157.631c-4.577 32.724-4.978 89.493 19.411 136.143 24.788 47.415 62.934 74.312 85.171 84.692a18.865 18.865 0 0 0 15.985 0c21.792-10.14 59.868-36.415 85.074-84.692 24.429-46.789 24.023-103.418 19.438-136.141-1.279-9.133-8.219-16.219-17.122-18.623l-90.173-24.352a20.002 20.002 0 0 0-10.425 0l-90.241 24.355c-8.902 2.402-15.841 9.486-17.118 18.618Z"/><path fill="url(#l)" fill-rule="evenodd" d="M159.21 295.164c-24.804-47.445-24.339-104.943-19.724-137.949 1.463-10.458 9.383-18.42 19.308-21.099l90.241-24.355a23.008 23.008 0 0 1 11.989.001l90.173 24.352c9.926 2.68 17.846 10.644 19.311 21.103 4.625 33.006 5.093 90.363-19.75 137.945-25.566 48.967-64.193 75.659-86.468 86.024a21.863 21.863 0 0 1-18.519-.002c-22.725-10.607-61.416-37.923-86.561-86.02Zm2.658-1.39c-24.388-46.65-23.987-103.419-19.411-136.143 1.277-9.132 8.217-16.216 17.119-18.618l90.241-24.355a20.002 20.002 0 0 1 10.425 0l90.173 24.352c8.903 2.404 15.842 9.49 17.122 18.623 4.585 32.723 4.99 89.352-19.439 136.141-25.206 48.277-63.281 74.552-85.073 84.692a18.865 18.865 0 0 1-15.985 0c-22.237-10.38-60.383-37.277-85.172-84.692Z" clip-rule="evenodd"/><path fill="#A2E6FF" d="M326.893 96.237a2.186 2.186 0 1 0 0-4.372 2.186 2.186 0 0 0 0 4.372Zm78.765 81.402a2.186 2.186 0 1 1-4.371 0 2.186 2.186 0 0 1 4.371 0Zm-8.979 33.559a3.523 3.523 0 1 1-7.047 0 3.524 3.524 0 1 1 7.047 0Zm-42.637 155.874a3.524 3.524 0 1 1-7.049 0 3.524 3.524 0 0 1 7.049 0ZM116.916 253.5a3.524 3.524 0 1 0 0-7.047 3.524 3.524 0 0 0 0 7.047Zm286.556 29.209a2.186 2.186 0 1 1-4.373 0 2.186 2.186 0 0 1 4.373 0Zm-76.579 86.549a2.186 2.186 0 1 0 0-4.371 2.186 2.186 0 0 0 0 4.371ZM116.917 117.064a2.187 2.187 0 1 1-4.373-.001 2.187 2.187 0 0 1 4.373.001Zm39.583 16.854a4.045 4.045 0 1 0-.002-8.09 4.045 4.045 0 0 0 .002 8.09Zm73.644 268.433a2.187 2.187 0 1 1-4.373 0 2.187 2.187 0 0 1 4.373 0ZM101.796 237.728a2.186 2.186 0 1 0 0-4.373 2.186 2.186 0 0 0 0 4.373Z"/><path fill="#C481FD" fill-rule="evenodd" d="M327.032 211.366c7.065-9.935 4.738-23.716-5.197-30.781-9.935-7.065-23.716-4.738-30.781 5.197l-45.857 64.488a4.014 4.014 0 0 1-6.181.438l-16.309-17.168c-8.397-8.838-22.368-9.196-31.207-.8-8.838 8.396-9.196 22.368-.8 31.206l37.848 39.84c.469.512.967 1.005 1.491 1.477a21.956 21.956 0 0 0 7.982 4.615 21.976 21.976 0 0 0 6.486 1.07 22.03 22.03 0 0 0 16.441-6.989 22.061 22.061 0 0 0 2.179-2.726l63.905-89.867Z" clip-rule="evenodd"/><path fill="url(#m)" fill-rule="evenodd" d="M327.032 211.366c7.065-9.935 4.738-23.716-5.197-30.781-9.935-7.065-23.716-4.738-30.781 5.197l-45.857 64.488a4.014 4.014 0 0 1-6.181.438l-16.309-17.168c-8.397-8.838-22.368-9.196-31.207-.8-8.838 8.396-9.196 22.368-.8 31.206l37.848 39.84c.469.512.967 1.005 1.491 1.477a21.956 21.956 0 0 0 7.982 4.615 21.976 21.976 0 0 0 6.486 1.07 22.03 22.03 0 0 0 16.441-6.989 22.061 22.061 0 0 0 2.179-2.726l63.905-89.867Z" clip-rule="evenodd"/><path fill="url(#n)" fill-rule="evenodd" d="M327.032 211.366c7.065-9.935 4.738-23.716-5.197-30.781-9.935-7.065-23.716-4.738-30.781 5.197l-45.857 64.488a4.014 4.014 0 0 1-6.181.438l-16.309-17.168c-8.397-8.838-22.368-9.196-31.207-.8-8.838 8.396-9.196 22.368-.8 31.206l37.848 39.84c.469.512.967 1.005 1.491 1.477a21.956 21.956 0 0 0 7.982 4.615 21.976 21.976 0 0 0 6.486 1.07 22.03 22.03 0 0 0 16.441-6.989 22.061 22.061 0 0 0 2.179-2.726l63.905-89.867Z" clip-rule="evenodd"/><path fill="url(#o)" fill-rule="evenodd" d="M327.032 211.366c7.065-9.935 4.738-23.716-5.197-30.781-9.935-7.065-23.716-4.738-30.781 5.197l-45.857 64.488a4.014 4.014 0 0 1-6.181.438l-16.309-17.168c-8.397-8.838-22.368-9.196-31.207-.8-8.838 8.396-9.196 22.368-.8 31.206l37.848 39.84c.469.512.967 1.005 1.491 1.477a21.956 21.956 0 0 0 7.982 4.615 21.976 21.976 0 0 0 6.486 1.07 22.03 22.03 0 0 0 16.441-6.989 22.061 22.061 0 0 0 2.179-2.726l63.905-89.867Z" clip-rule="evenodd"/><path fill="url(#p)" fill-opacity=".62" fill-rule="evenodd" d="M327.032 211.366c7.065-9.935 4.738-23.716-5.197-30.781-9.935-7.065-23.716-4.738-30.781 5.197l-45.857 64.488a4.014 4.014 0 0 1-6.181.438l-16.309-17.168c-8.397-8.838-22.368-9.196-31.207-.8-8.838 8.396-9.196 22.368-.8 31.206l37.848 39.84c.469.512.967 1.005 1.491 1.477a21.956 21.956 0 0 0 7.982 4.615 21.976 21.976 0 0 0 6.486 1.07 22.03 22.03 0 0 0 16.441-6.989 22.061 22.061 0 0 0 2.179-2.726l63.905-89.867Z" clip-rule="evenodd"/><path fill="url(#q)" fill-opacity=".6" fill-rule="evenodd" d="M327.032 211.366c7.065-9.935 4.738-23.716-5.197-30.781-9.935-7.065-23.716-4.738-30.781 5.197l-45.857 64.488a4.014 4.014 0 0 1-6.181.438l-16.309-17.168c-8.397-8.838-22.368-9.196-31.207-.8-8.838 8.396-9.196 22.368-.8 31.206l37.848 39.84c.469.512.967 1.005 1.491 1.477a21.956 21.956 0 0 0 7.982 4.615 21.976 21.976 0 0 0 6.486 1.07 22.03 22.03 0 0 0 16.441-6.989 22.061 22.061 0 0 0 2.179-2.726l63.905-89.867Z" clip-rule="evenodd"/><defs><radialGradient id="a" cx="0" cy="0" r="1" gradientTransform="matrix(-70.00008 -421.9997 820.28246 -136.06607 342 432.5)" gradientUnits="userSpaceOnUse"><stop offset=".123" stop-color="#CDEC7E"/><stop offset=".222" stop-color="#31D4E2"/><stop offset=".34" stop-color="#31D2E2"/><stop offset=".641" stop-color="#0C97ED"/><stop offset="1" stop-color="#004AB2"/></radialGradient><radialGradient id="b" cx="0" cy="0" r="1" gradientTransform="matrix(468.9701 124.74298 -30.26465 113.77968 349.545 22.805)" gradientUnits="userSpaceOnUse"><stop offset=".53" stop-color="#005799"/><stop offset=".878" stop-color="#0666AD" stop-opacity="0"/></radialGradient><radialGradient id="c" cx="0" cy="0" r="1" gradientTransform="rotate(159.167 88.698 29.726) scale(381.823 101.903)" gradientUnits="userSpaceOnUse"><stop offset=".454" stop-color="#005799"/><stop offset=".878" stop-color="#0666AD" stop-opacity="0"/></radialGradient><radialGradient id="d" cx="0" cy="0" r="1" gradientTransform="matrix(-81.25762 -69.25598 141.61064 -166.1509 290.5 342.5)" gradientUnits="userSpaceOnUse"><stop offset=".327" stop-color="#006DB7"/><stop offset=".478" stop-color="#95CAED" stop-opacity="0"/></radialGradient><radialGradient id="e" cx="0" cy="0" r="1" gradientTransform="matrix(124.35687 -50.51986 128.13993 315.42214 190.917 284.593)" gradientUnits="userSpaceOnUse"><stop offset=".302" stop-color="#006DB7"/><stop offset=".424" stop-color="#0B8EE6" stop-opacity="0"/></radialGradient><radialGradient id="g" cx="0" cy="0" r="1" gradientTransform="rotate(-144.345 231.587 108.968) scale(113.225 187.573)" gradientUnits="userSpaceOnUse"><stop offset=".276" stop-color="#fff"/><stop offset=".867" stop-color="#E7E7E7" stop-opacity="0"/></radialGradient><radialGradient id="h" cx="0" cy="0" r="1" gradientTransform="matrix(296.9998 79 -23.1505 87.03408 314.243 99.5)" gradientUnits="userSpaceOnUse"><stop offset=".53" stop-color="#909090"/><stop offset=".878" stop-color="#E7E7E7" stop-opacity="0"/></radialGradient><radialGradient id="i" cx="0" cy="0" r="1" gradientTransform="matrix(-226.0007 85.9986 -31.1302 -81.80887 208.243 101.501)" gradientUnits="userSpaceOnUse"><stop offset=".454" stop-color="#909090"/><stop offset=".878" stop-color="#E7E7E7" stop-opacity="0"/></radialGradient><radialGradient id="j" cx="0" cy="0" r="1" gradientTransform="matrix(50.24995 -66.49999 15.97674 12.07264 283.75 273.001)" gradientUnits="userSpaceOnUse"><stop offset=".246" stop-color="#86A0A5"/><stop offset="1" stop-color="#86A0A5" stop-opacity="0"/></radialGradient><radialGradient id="k" cx="0" cy="0" r="1" gradientTransform="matrix(14.49997 -16 41.66602 37.75977 221.5 296.5)" gradientUnits="userSpaceOnUse"><stop offset=".407" stop-color="#86A0A5"/><stop offset=".927" stop-color="#90A9AE" stop-opacity="0"/></radialGradient><radialGradient id="l" cx="0" cy="0" r="1" gradientTransform="rotate(135.456 165.024 124.515) scale(332.166 284.489)" gradientUnits="userSpaceOnUse"><stop stop-color="#EDEDED"/><stop offset="1" stop-color="#E7E7E7"/></radialGradient><radialGradient id="p" cx="0" cy="0" r="1" gradientTransform="matrix(23.57697 24.74476 -21.08922 20.09395 216.235 236.645)" gradientUnits="userSpaceOnUse"><stop stop-color="#fff"/><stop offset=".396" stop-color="#fff" stop-opacity=".458"/><stop offset=".981" stop-color="#fff" stop-opacity="0"/></radialGradient><radialGradient id="q" cx="0" cy="0" r="1" gradientTransform="rotate(129.199 95.399 170.207) scale(81.1587 31.6277)" gradientUnits="userSpaceOnUse"><stop stop-color="#F0DFFF"/><stop offset=".541" stop-color="#F0DFFF" stop-opacity="0"/><stop offset="1" stop-color="#F0DFFF" stop-opacity="0"/></radialGradient><linearGradient id="f" x1="356.044" x2="42.928" y1="96.257" y2="502.217" gradientUnits="userSpaceOnUse"><stop offset=".309" stop-color="#E7E7E7"/><stop offset=".637" stop-color="#C9F5FF"/></linearGradient><linearGradient id="m" x1="214.454" x2="258.783" y1="297.872" y2="255.402" gradientUnits="userSpaceOnUse"><stop stop-color="#C481FD"/><stop offset=".177" stop-color="#7D1BCD"/><stop offset=".529" stop-color="#C481FD" stop-opacity="0"/><stop offset=".773" stop-color="#F0DFFF" stop-opacity="0"/></linearGradient><linearGradient id="n" x1="177.607" x2="206.307" y1="252.753" y2="262.79" gradientUnits="userSpaceOnUse"><stop stop-color="#7D1BCD"/><stop offset="1" stop-color="#C481FD" stop-opacity="0"/></linearGradient><linearGradient id="o" x1="271.418" x2="229.653" y1="285.362" y2="256.104" gradientUnits="userSpaceOnUse"><stop stop-color="#7D1BCD"/><stop offset=".682" stop-color="#C481FD" stop-opacity="0"/><stop offset="1" stop-color="#F0DFFF" stop-opacity="0"/></linearGradient></defs></svg>