<svg xmlns="http://www.w3.org/2000/svg" width="512" height="513" fill="none"><path fill="url(#a)" fill-rule="evenodd" d="M76.606 195.799a9.5 9.5 0 0 1-9.5-9.5v-70.18c0-26.785 21.715-48.5 48.5-48.5h73.903a9.5 9.5 0 0 1 9.5 9.5 9.5 9.5 0 0 1-9.5 9.5h-73.903c-16.292 0-29.5 13.208-29.5 29.5v70.18a9.5 9.5 0 0 1-9.5 9.5Z" clip-rule="evenodd"/><path fill="url(#b)" fill-opacity=".8" fill-rule="evenodd" d="M76.606 195.799a9.5 9.5 0 0 1-9.5-9.5v-70.18c0-26.785 21.715-48.5 48.5-48.5h73.903a9.5 9.5 0 0 1 9.5 9.5 9.5 9.5 0 0 1-9.5 9.5h-73.903c-16.292 0-29.5 13.208-29.5 29.5v70.18a9.5 9.5 0 0 1-9.5 9.5Z" clip-rule="evenodd"/><path fill="url(#c)" fill-opacity=".8" fill-rule="evenodd" d="M76.606 195.799a9.5 9.5 0 0 1-9.5-9.5v-70.18c0-26.785 21.715-48.5 48.5-48.5h73.903a9.5 9.5 0 0 1 9.5 9.5 9.5 9.5 0 0 1-9.5 9.5h-73.903c-16.292 0-29.5 13.208-29.5 29.5v70.18a9.5 9.5 0 0 1-9.5 9.5Z" clip-rule="evenodd"/><path fill="url(#d)" d="M152.492 310.864c0-15.51 12.482-28.071 27.872-28.071h77.059v105.708c-27.636 0-53.455-5.528-72.664-17.309-19.533-11.979-32.267-30.553-32.267-55.365v-4.963Z"/><path fill="url(#e)" fill-opacity=".5" d="M152.492 310.864c0-15.51 12.482-28.071 27.872-28.071h77.059v105.708c-27.636 0-53.455-5.528-72.664-17.309-19.533-11.979-32.267-30.553-32.267-55.365v-4.963Z"/><path fill="url(#f)" d="M191.84 190.299c0-36.488 29.362-66.068 65.581-66.068v132.135c-36.219 0-65.581-29.579-65.581-66.067Z"/><path fill="url(#g)" fill-opacity=".8" d="M191.84 190.299c0-36.488 29.362-66.068 65.581-66.068v132.135c-36.219 0-65.581-29.579-65.581-66.067Z"/><path fill="url(#h)" fill-opacity=".6" d="M191.84 190.299c0-36.488 29.362-66.068 65.581-66.068v132.135c-36.219 0-65.581-29.579-65.581-66.067Z"/><path fill="url(#i)" d="M262.943 256.136c33.636-2.825 60.06-31.222 60.06-65.837 0-34.614-26.424-63.011-60.06-65.836v131.673Z"/><path fill="url(#j)" d="M262.943 388.426c25.54-.693 49.22-6.241 67.143-17.234 19.533-11.979 32.267-30.553 32.267-55.365v-4.964c0-15.51-12.482-28.07-27.871-28.07h-71.539v105.633Z"/><path fill="url(#k)" d="M262.943 388.426c25.54-.693 49.22-6.241 67.143-17.234 19.533-11.979 32.267-30.553 32.267-55.365v-4.964c0-15.51-12.482-28.07-27.871-28.07h-71.539v105.633Z"/><circle cx="358.316" cy="297.726" r="54.796" fill="url(#l)"/><circle cx="358.316" cy="297.726" r="54.796" fill="url(#m)"/><circle cx="358.316" cy="297.726" r="54.796" fill="url(#n)"/><circle cx="358.316" cy="297.726" r="54.796" fill="url(#o)"/><circle cx="358.316" cy="297.726" r="54.796" fill="url(#p)"/><circle cx="358.316" cy="297.726" r="54.796" fill="url(#q)"/><circle cx="358.316" cy="297.726" r="54.796" fill="url(#r)"/><circle cx="358.316" cy="297.726" r="54.796" fill="url(#s)"/><circle cx="358.316" cy="297.726" r="54.796" fill="url(#t)"/><circle cx="358.316" cy="297.726" r="54.796" fill="url(#u)"/><path fill="url(#v)" stroke="#F2F1F3" stroke-linecap="round" stroke-width="1.5" d="M363.676 285.102c-3.498-1.721-7.566-1.481-10.719-.048-3.043 1.383-4.813 3.219-5.852 5.315-1.08 2.177-1.538 4.98-1.313 8.487.459 7.139 3.65 15.981 7.846 25.396a4.249 4.249 0 0 1-2.151 5.612 4.249 4.249 0 0 1-5.612-2.151c-4.217-9.46-8.001-19.52-8.565-28.312-.287-4.459.231-8.879 2.18-12.808 1.988-4.01 5.297-7.162 9.95-9.277 5.127-2.33 11.889-2.843 17.99.16 6.258 3.08 11.1 9.49 12.967 19.585.977 5.282 3.522 10.086 6.424 13.718 1.445 1.807 2.927 3.259 4.259 4.297 1.391 1.085 2.388 1.538 2.855 1.656a4.251 4.251 0 0 1-2.088 8.24c-2.065-.523-4.136-1.744-5.993-3.192-1.916-1.494-3.864-3.431-5.673-5.695-3.605-4.51-6.865-10.574-8.142-17.478-1.492-8.067-5.022-11.86-8.363-13.505Zm-6.731 7.132a4.25 4.25 0 0 1 5.056 3.25c3.598 16.552 8.58 25.52 15.864 32.196a4.25 4.25 0 0 1-5.743 6.266c-9.003-8.25-14.6-19.053-18.427-36.657a4.248 4.248 0 0 1 3.25-5.055Zm1.883-25.16c-16.703 0-30.244 13.541-30.244 30.244 0 5.702 1.315 13.511 3.825 20.911a4.25 4.25 0 1 1-8.05 2.73c-2.755-8.125-4.275-16.86-4.275-23.641 0-21.397 17.346-38.744 38.744-38.744 6.847 0 13.292 1.78 18.882 4.906a4.25 4.25 0 1 1-4.148 7.419 30.087 30.087 0 0 0-14.734-3.825Zm23.962 6.289a4.25 4.25 0 0 1 6.01-.085 38.594 38.594 0 0 1 10.119 16.679 4.25 4.25 0 0 1-8.146 2.429 30.097 30.097 0 0 0-7.898-13.014 4.25 4.25 0 0 1-.085-6.009Z"/><path fill="url(#w)" fill-rule="evenodd" d="M435.312 317.086a9.5 9.5 0 0 1 9.5 9.5v70.179c0 26.786-21.715 48.5-48.5 48.5h-73.903a9.5 9.5 0 0 1 0-19h73.903c16.292 0 29.5-13.207 29.5-29.5v-70.179a9.5 9.5 0 0 1 9.5-9.5Z" clip-rule="evenodd"/><path fill="url(#x)" fill-rule="evenodd" d="M435.312 317.086a9.5 9.5 0 0 1 9.5 9.5v70.179c0 26.786-21.715 48.5-48.5 48.5h-73.903a9.5 9.5 0 0 1 0-19h73.903c16.292 0 29.5-13.207 29.5-29.5v-70.179a9.5 9.5 0 0 1 9.5-9.5Z" clip-rule="evenodd"/><path fill="url(#y)" fill-rule="evenodd" d="M435.312 317.086a9.5 9.5 0 0 1 9.5 9.5v70.179c0 26.786-21.715 48.5-48.5 48.5h-73.903a9.5 9.5 0 0 1 0-19h73.903c16.292 0 29.5-13.207 29.5-29.5v-70.179a9.5 9.5 0 0 1 9.5-9.5Z" clip-rule="evenodd"/><path fill="url(#z)" fill-opacity=".8" fill-rule="evenodd" d="M435.312 317.086a9.5 9.5 0 0 1 9.5 9.5v70.179c0 26.786-21.715 48.5-48.5 48.5h-73.903a9.5 9.5 0 0 1 0-19h73.903c16.292 0 29.5-13.207 29.5-29.5v-70.179a9.5 9.5 0 0 1 9.5-9.5Z" clip-rule="evenodd"/><path fill="url(#A)" fill-rule="evenodd" d="M435.312 195.799a9.5 9.5 0 0 0 9.5-9.5v-70.18c0-26.785-21.715-48.5-48.5-48.5h-73.903a9.5 9.5 0 0 0-9.5 9.5 9.5 9.5 0 0 0 9.5 9.5h73.903c16.292 0 29.5 13.208 29.5 29.5v70.18a9.5 9.5 0 0 0 9.5 9.5Z" clip-rule="evenodd"/><path fill="url(#B)" fill-opacity=".8" fill-rule="evenodd" d="M435.312 195.799a9.5 9.5 0 0 0 9.5-9.5v-70.18c0-26.785-21.715-48.5-48.5-48.5h-73.903a9.5 9.5 0 0 0-9.5 9.5 9.5 9.5 0 0 0 9.5 9.5h73.903c16.292 0 29.5 13.208 29.5 29.5v70.18a9.5 9.5 0 0 0 9.5 9.5Z" clip-rule="evenodd"/><path fill="url(#C)" fill-opacity=".8" fill-rule="evenodd" d="M435.312 195.799a9.5 9.5 0 0 0 9.5-9.5v-70.18c0-26.785-21.715-48.5-48.5-48.5h-73.903a9.5 9.5 0 0 0-9.5 9.5 9.5 9.5 0 0 0 9.5 9.5h73.903c16.292 0 29.5 13.208 29.5 29.5v70.18a9.5 9.5 0 0 0 9.5 9.5Z" clip-rule="evenodd"/><path fill="url(#D)" fill-opacity=".8" fill-rule="evenodd" d="M435.312 195.799a9.5 9.5 0 0 0 9.5-9.5v-70.18c0-26.785-21.715-48.5-48.5-48.5h-73.903a9.5 9.5 0 0 0-9.5 9.5 9.5 9.5 0 0 0 9.5 9.5h73.903c16.292 0 29.5 13.208 29.5 29.5v70.18a9.5 9.5 0 0 0 9.5 9.5Z" clip-rule="evenodd"/><path fill="url(#E)" fill-rule="evenodd" d="M76.606 317.086a9.5 9.5 0 0 0-9.5 9.5v70.179c0 26.786 21.715 48.5 48.5 48.5h73.903a9.5 9.5 0 0 0 9.5-9.5c0-5.246-4.254-9.5-9.5-9.5h-73.903c-16.292 0-29.5-13.207-29.5-29.5v-70.179a9.5 9.5 0 0 0-9.5-9.5Z" clip-rule="evenodd"/><path fill="url(#F)" fill-rule="evenodd" d="M76.606 317.086a9.5 9.5 0 0 0-9.5 9.5v70.179c0 26.786 21.715 48.5 48.5 48.5h73.903a9.5 9.5 0 0 0 9.5-9.5c0-5.246-4.254-9.5-9.5-9.5h-73.903c-16.292 0-29.5-13.207-29.5-29.5v-70.179a9.5 9.5 0 0 0-9.5-9.5Z" clip-rule="evenodd"/><path fill="url(#G)" fill-rule="evenodd" d="M76.606 317.086a9.5 9.5 0 0 0-9.5 9.5v70.179c0 26.786 21.715 48.5 48.5 48.5h73.903a9.5 9.5 0 0 0 9.5-9.5c0-5.246-4.254-9.5-9.5-9.5h-73.903c-16.292 0-29.5-13.207-29.5-29.5v-70.179a9.5 9.5 0 0 0-9.5-9.5Z" clip-rule="evenodd"/><path fill="url(#H)" fill-opacity=".4" fill-rule="evenodd" d="M76.606 317.086a9.5 9.5 0 0 0-9.5 9.5v70.179c0 26.786 21.715 48.5 48.5 48.5h73.903a9.5 9.5 0 0 0 9.5-9.5c0-5.246-4.254-9.5-9.5-9.5h-73.903c-16.292 0-29.5-13.207-29.5-29.5v-70.179a9.5 9.5 0 0 0-9.5-9.5Z" clip-rule="evenodd"/><path fill="#AEE1F6" d="M256 280.293a2.5 2.5 0 1 1-5 0 2.5 2.5 0 0 1 5 0Zm-31.869-109.68a3.5 3.5 0 1 1-7 0 3.5 3.5 0 0 1 7 0ZM191.84 316.586a2.5 2.5 0 1 1-5 0 2.5 2.5 0 0 1 5 0Zm62.246-3.5a1 1 0 1 1-2 0 1 1 0 0 1 2 0Zm-29.455 23.56a2 2 0 1 1-4 0 2 2 0 0 1 4 0Zm15.195-131.01a2 2 0 1 1-4.001-.001 2 2 0 0 1 4.001.001Zm20.597 124.436a1.5 1.5 0 1 1-3 0 1.5 1.5 0 0 1 3 0Zm-40.792-107.478a1.5 1.5 0 1 1-3.001-.001 1.5 1.5 0 0 1 3.001.001Zm32.455 153.902a1 1 0 1 1-2 0 1 1 0 0 1 2 0Zm-53.077-23.974a1 1 0 1 1-2 0 1 1 0 0 1 2 0Zm63.934 11.999a1 1 0 1 1-1.998.002 1 1 0 0 1 1.998-.002Z"/><path fill="#88DBFF" fill-rule="evenodd" d="M257.086 66.615c5.523 0 10 4.477 10 10v358.998c0 5.523-4.477 10-10 10s-10-4.477-10-10V76.615c0-5.523 4.477-10 10-10Z" clip-rule="evenodd"/><path fill="url(#I)" fill-opacity=".8" fill-rule="evenodd" d="M257.086 66.615c5.523 0 10 4.477 10 10v358.998c0 5.523-4.477 10-10 10s-10-4.477-10-10V76.615c0-5.523 4.477-10 10-10Z" clip-rule="evenodd"/><path fill="url(#J)" fill-opacity=".9" fill-rule="evenodd" d="M257.086 66.615c5.523 0 10 4.477 10 10v358.998c0 5.523-4.477 10-10 10s-10-4.477-10-10V76.615c0-5.523 4.477-10 10-10Z" clip-rule="evenodd"/><path fill="url(#K)" fill-opacity=".4" fill-rule="evenodd" d="M257.086 66.615c5.523 0 10 4.477 10 10v358.998c0 5.523-4.477 10-10 10s-10-4.477-10-10V76.615c0-5.523 4.477-10 10-10Z" clip-rule="evenodd"/><defs><radialGradient id="a" cx="0" cy="0" r="1" gradientTransform="rotate(-89.063 137.598 59.187) scale(152.853 205.206)" gradientUnits="userSpaceOnUse"><stop offset=".03" stop-color="#58AF75"/><stop offset=".087" stop-color="#AFDD6F"/></radialGradient><radialGradient id="b" cx="0" cy="0" r="1" gradientTransform="matrix(5.00006 -57.50001 163.33064 14.20283 186.5 113.217)" gradientUnits="userSpaceOnUse"><stop offset=".438" stop-color="#58AF75"/><stop offset=".665" stop-color="#58AF75" stop-opacity="0"/></radialGradient><radialGradient id="c" cx="0" cy="0" r="1" gradientTransform="matrix(-128.75 0 0 -18.4656 144.918 67.62)" gradientUnits="userSpaceOnUse"><stop offset=".261" stop-color="#D7FFA0"/><stop offset=".823" stop-color="#AFDD70" stop-opacity="0"/></radialGradient><radialGradient id="d" cx="0" cy="0" r="1" gradientTransform="rotate(124.527 66.266 215.336) scale(169.082 207.313)" gradientUnits="userSpaceOnUse"><stop offset=".09" stop-color="#D5B1FF"/><stop offset=".389" stop-color="#C594FF"/><stop offset=".507" stop-color="#AD6CFF"/><stop offset=".642" stop-color="#6B23D7"/><stop offset=".82" stop-color="#E0538F"/></radialGradient><radialGradient id="e" cx="0" cy="0" r="1" gradientTransform="rotate(164.358 98.66 192.062) scale(19.9006 75.5811)" gradientUnits="userSpaceOnUse"><stop offset=".376" stop-color="#5816B4"/><stop offset="1" stop-color="#854ADD" stop-opacity="0"/></radialGradient><radialGradient id="f" cx="0" cy="0" r="1" gradientTransform="matrix(-33.76 116.9643 -71.71083 -20.69827 231.663 161.779)" gradientUnits="userSpaceOnUse"><stop offset=".05" stop-color="#E8CCFF"/><stop offset=".23" stop-color="#C594FF"/><stop offset=".36" stop-color="#AD6CFF"/><stop offset=".51" stop-color="#8E42FF"/><stop offset=".78" stop-color="#E0538F"/></radialGradient><radialGradient id="g" cx="0" cy="0" r="1" gradientTransform="matrix(-7.92126 116.1933 -58.48545 -3.98714 224.629 190.354)" gradientUnits="userSpaceOnUse"><stop offset=".45" stop-color="#fff" stop-opacity="0"/><stop offset=".84" stop-color="#fff"/></radialGradient><radialGradient id="h" cx="0" cy="0" r="1" gradientTransform="rotate(167.384 110.266 120.265) scale(19.9903 74.3861)" gradientUnits="userSpaceOnUse"><stop offset=".411" stop-color="#5816B4"/><stop offset="1" stop-color="#854ADD" stop-opacity="0"/></radialGradient><radialGradient id="k" cx="0" cy="0" r="1" gradientTransform="matrix(123.02603 44.45055 -66.99932 185.4344 335.092 327.448)" gradientUnits="userSpaceOnUse"><stop offset=".236" stop-color="#C3C3C3"/><stop offset=".332" stop-color="#CFCFCF" stop-opacity="0"/></radialGradient><radialGradient id="m" cx="0" cy="0" r="1" gradientTransform="rotate(-9.462 2090.678 -1816.287) scale(7.56326 15.778)" gradientUnits="userSpaceOnUse"><stop offset=".366" stop-color="#0056B4"/><stop offset=".842" stop-color="#0056B4" stop-opacity="0"/></radialGradient><radialGradient id="n" cx="0" cy="0" r="1" gradientTransform="matrix(8.13437 -2.46643 7.81635 25.77855 344.567 318.346)" gradientUnits="userSpaceOnUse"><stop offset=".532" stop-color="#0056B4"/><stop offset=".842" stop-color="#0056B4" stop-opacity="0"/></radialGradient><radialGradient id="o" cx="0" cy="0" r="1" gradientTransform="matrix(9.80882 -4.06375 7.3917 17.84163 371.03 332.85)" gradientUnits="userSpaceOnUse"><stop offset=".304" stop-color="#0056B4"/><stop offset=".729" stop-color="#0056B4" stop-opacity="0"/></radialGradient><radialGradient id="p" cx="0" cy="0" r="1" gradientTransform="matrix(8.63373 -3.01338 12.3847 35.48382 362.054 317.011)" gradientUnits="userSpaceOnUse"><stop offset=".304" stop-color="#0056B4"/><stop offset=".729" stop-color="#0056B4" stop-opacity="0"/></radialGradient><radialGradient id="q" cx="0" cy="0" r="1" gradientTransform="matrix(8.6295 -4.61231 8.13342 15.21738 389.025 322.715)" gradientUnits="userSpaceOnUse"><stop offset=".304" stop-color="#0056B4"/><stop offset=".729" stop-color="#0056B4" stop-opacity="0"/></radialGradient><radialGradient id="r" cx="0" cy="0" r="1" gradientTransform="matrix(8.10048 -2.9757 8.54708 23.26699 380.5 311.361)" gradientUnits="userSpaceOnUse"><stop offset=".304" stop-color="#0056B4"/><stop offset=".729" stop-color="#0056B4" stop-opacity="0"/></radialGradient><radialGradient id="s" cx="0" cy="0" r="1" gradientTransform="matrix(6.44202 -2.21444 4.70982 13.7013 385.162 281.507)" gradientUnits="userSpaceOnUse"><stop offset=".304" stop-color="#0094B4"/><stop offset=".729" stop-color="#0094B4" stop-opacity="0"/></radialGradient><radialGradient id="t" cx="0" cy="0" r="1" gradientTransform="matrix(9.181 -3.33344 6.27911 17.29397 392.505 291.81)" gradientUnits="userSpaceOnUse"><stop offset=".173" stop-color="#0056B4"/><stop offset=".729" stop-color="#0056B4" stop-opacity="0"/></radialGradient><radialGradient id="u" cx="0" cy="0" r="1" gradientTransform="rotate(-178.636 163.35 149.691) scale(7.83558 29.2632)" gradientUnits="userSpaceOnUse"><stop offset=".293" stop-color="#0056B4"/><stop offset=".699" stop-color="#0094B4" stop-opacity="0"/></radialGradient><radialGradient id="x" cx="0" cy="0" r="1" gradientTransform="rotate(62.536 -56.826 403.88) scale(354.328 280.253)" gradientUnits="userSpaceOnUse"><stop offset=".518" stop-color="#56AAAA" stop-opacity="0"/><stop offset=".547" stop-color="#56AAAA"/></radialGradient><radialGradient id="y" cx="0" cy="0" r="1" gradientTransform="matrix(16.7759 0 0 85.6557 419.903 350.246)" gradientUnits="userSpaceOnUse"><stop offset=".239" stop-color="#56AAAA"/><stop offset=".856" stop-color="#56AAAA" stop-opacity="0"/></radialGradient><radialGradient id="z" cx="0" cy="0" r="1" gradientTransform="matrix(.37502 14.375 -23.68474 .61789 435.5 315.092)" gradientUnits="userSpaceOnUse"><stop offset=".533" stop-color="#B7FBE4"/><stop offset="1" stop-color="#5EDBB2" stop-opacity="0"/></radialGradient><radialGradient id="A" cx="0" cy="0" r="1" gradientTransform="matrix(-2.4996 -152.83256 205.17856 -3.35573 435.748 195.8)" gradientUnits="userSpaceOnUse"><stop offset=".03" stop-color="#58AF75"/><stop offset=".087" stop-color="#AFDD6F"/></radialGradient><radialGradient id="B" cx="0" cy="0" r="1" gradientTransform="matrix(128.75 0 0 18.4656 367 67.62)" gradientUnits="userSpaceOnUse"><stop offset=".261" stop-color="#D7FFA0"/><stop offset=".823" stop-color="#AFDD70" stop-opacity="0"/></radialGradient><radialGradient id="C" cx="0" cy="0" r="1" gradientTransform="matrix(-1 -32.84698 121.0659 -3.68579 339.75 100.466)" gradientUnits="userSpaceOnUse"><stop offset=".484" stop-color="#58AF75"/><stop offset=".759" stop-color="#58AF75" stop-opacity="0"/></radialGradient><radialGradient id="D" cx="0" cy="0" r="1" gradientTransform="matrix(18.99996 .25 -.8523 64.7742 418 153.716)" gradientUnits="userSpaceOnUse"><stop offset=".343" stop-color="#58AF75"/><stop offset=".981" stop-color="#58AF75" stop-opacity="0"/></radialGradient><radialGradient id="F" cx="0" cy="0" r="1" gradientTransform="rotate(-102.595 223.359 116.046) scale(190.293 188.716)" gradientUnits="userSpaceOnUse"><stop offset=".483" stop-color="#56AAAA" stop-opacity="0"/><stop offset=".561" stop-color="#56AAAA"/><stop offset=".909" stop-color="#56AAAA" stop-opacity="0"/></radialGradient><radialGradient id="G" cx="0" cy="0" r="1" gradientTransform="matrix(16.894 0 0 290.416 61.157 350.983)" gradientUnits="userSpaceOnUse"><stop offset=".239" stop-color="#56AAAA"/><stop offset=".856" stop-color="#56AAAA" stop-opacity="0"/></radialGradient><radialGradient id="H" cx="0" cy="0" r="1" gradientTransform="matrix(0 10.7365 -75.014 0 78.978 315.424)" gradientUnits="userSpaceOnUse"><stop offset=".235" stop-color="#E8FFFA"/><stop offset=".607" stop-color="#CDFFF2"/><stop offset="1" stop-color="#CDFFF2" stop-opacity="0"/></radialGradient><radialGradient id="I" cx="0" cy="0" r="1" gradientTransform="matrix(-1.0104 278.99617 -58.37082 -.2114 258.096 200.903)" gradientUnits="userSpaceOnUse"><stop offset=".845" stop-color="#0385CD" stop-opacity="0"/><stop offset=".884" stop-color="#0F57C3"/><stop offset=".938" stop-color="#0F57C3"/></radialGradient><radialGradient id="K" cx="0" cy="0" r="1" gradientTransform="rotate(87.397 94.775 171.14) scale(6.85458 17.2006)" gradientUnits="userSpaceOnUse"><stop offset=".308" stop-color="#E7F9FF"/><stop offset=".412" stop-color="#BFF0FF"/><stop offset="1" stop-color="#BFF0FF" stop-opacity="0"/></radialGradient><linearGradient id="i" x1="257.421" x2="186.636" y1="-40.174" y2="362.865" gradientUnits="userSpaceOnUse"><stop offset=".36" stop-color="#E7E7E7"/><stop offset=".599" stop-color="#DBD6E5"/><stop offset=".777" stop-color="#C5B4E3"/></linearGradient><linearGradient id="j" x1="257.423" x2="228.458" y1="151.268" y2="481.102" gradientUnits="userSpaceOnUse"><stop offset=".36" stop-color="#E7E7E7"/><stop offset=".599" stop-color="#DBD6E5"/><stop offset=".777" stop-color="#C5B4E3"/></linearGradient><linearGradient id="l" x1="378.849" x2="382.067" y1="233.713" y2="363.992" gradientUnits="userSpaceOnUse"><stop offset=".033" stop-color="#D9FFA9"/><stop offset=".502" stop-color="#3EC5FF"/><stop offset=".866" stop-color="#277DDB"/></linearGradient><linearGradient id="v" x1="394.968" x2="309.588" y1="252.888" y2="386.319" gradientUnits="userSpaceOnUse"><stop offset=".368" stop-color="#E7E7E7"/><stop offset=".714" stop-color="#C9F5FF"/></linearGradient><linearGradient id="w" x1="414" x2="416" y1="317.086" y2="445.265" gradientUnits="userSpaceOnUse"><stop stop-color="#51D7A7"/><stop offset=".868" stop-color="#9FEEEE"/><stop offset=".924" stop-color="#84D5D5"/><stop offset=".979" stop-color="#57ABAB"/></linearGradient><linearGradient id="E" x1="97.918" x2="95.918" y1="317.086" y2="445.265" gradientUnits="userSpaceOnUse"><stop stop-color="#51D7A7"/><stop offset=".868" stop-color="#9FEEEE"/><stop offset=".924" stop-color="#84D5D5"/><stop offset=".979" stop-color="#57ABAB"/></linearGradient><linearGradient id="J" x1="239.628" x2="277.386" y1="371.78" y2="371.78" gradientUnits="userSpaceOnUse"><stop offset=".066" stop-color="#0F57C3"/><stop offset=".558" stop-color="#0385CD" stop-opacity="0"/></linearGradient></defs></svg>