<?xml version="1.0" encoding="UTF-8" standalone="no"?>
<svg
   width="101"
   height="100"
   viewBox="0 0 101 100"
   fill="none"
   version="1.1"
   id="svg10"
   sodipodi:docname="tap-plus-icon.svg"
   xmlns:inkscape="http://www.inkscape.org/namespaces/inkscape"
   xmlns:sodipodi="http://sodipodi.sourceforge.net/DTD/sodipodi-0.dtd"
   xmlns="http://www.w3.org/2000/svg"
   xmlns:svg="http://www.w3.org/2000/svg">
  <defs
     id="defs10" />
  <sodipodi:namedview
     id="namedview10"
     pagecolor="#ffffff"
     bordercolor="#000000"
     borderopacity="0.25"
     inkscape:showpageshadow="2"
     inkscape:pageopacity="0.0"
     inkscape:pagecheckerboard="0"
     inkscape:deskcolor="#d1d1d1" />
  <mask
     id="mask0_13105_199926"
     maskUnits="userSpaceOnUse"
     x="0"
     y="0"
     width="101"
     height="100">
    <path
       d="m 100.375,0 h -100 v 100 h 100 z"
       fill="#ffffff"
       id="path1" />
  </mask>
  <g
     mask="url(#mask0_13105_199926)"
     id="g10">
    <path
       d="m 81.625,1 h -62.5 C 15.328,1 12.25,4.07804 12.25,7.875 v 140 c 0,3.797 3.078,6.875 6.875,6.875 h 62.5 c 3.797,0 6.875,-3.078 6.875,-6.875 v -140 C 88.5,4.07804 85.422,1 81.625,1 Z"
       fill="#ffffff"
       stroke="#9a9a9a"
       stroke-width="2"
       id="path2" />
    <path
       d="m 14.125,7.875 c 0,-2.76144 2.2386,-5 5,-5 h 62.5 c 2.7613,0 5,2.23856 5,5 V 24.75 h -72.5 z"
       fill="#0078d4"
       id="path3" />
    <path
       d="M 72.8391,8.0325 V 8.02669 L 72.8378,8.02094 c -0.0475,-0.31525 -0.34,-0.53656 -0.6687,-0.53656 -0.3569,0 -0.675,0.26418 -0.675,0.62343 l 6e-4,4.35889 h -4.8588 -0.005 l -0.0043,3e-4 -0.0707,0.0043 -0.005,2e-4 -0.0043,6e-4 c -0.3175,0.0388 -0.5857,0.2891 -0.5857,0.618 0,0.3593 0.3182,0.6233 0.675,0.6233 h 4.8594 l 0.0013,4.3587 v 0.0058 0.0057 l 0.005,0.0634 6e-4,0.0059 6e-4,0.0058 c 0.0475,0.3152 0.34,0.5366 0.6688,0.5366 0.3575,0 0.675,-0.2642 0.675,-0.6235 l -0.0013,-4.3584 h 4.8619 0.005 l 0.0044,-3e-4 0.0706,-0.0042 0.005,-3e-4 0.0044,-6e-4 c 0.3175,-0.0388 0.5856,-0.2891 0.5856,-0.6179 0,-0.3593 -0.3181,-0.6234 -0.675,-0.6234 h -4.8619 l -6e-4,-4.35907 V 8.10175 l -6e-4,-0.00588 z"
       fill="#ffffff"
       stroke="#ffffff"
       stroke-width="0.5"
       id="path4" />
    <g
       opacity="0.6"
       id="g7">
      <path
         d="m 25.4174,43.7019 c 3.6046,0 6.5267,-2.9221 6.5267,-6.5267 0,-3.6046 -2.9221,-6.5268 -6.5267,-6.5268 -3.6047,0 -6.5268,2.9222 -6.5268,6.5268 0,3.6046 2.9221,6.5267 6.5268,6.5267 z"
         fill="#d9d9d9"
         id="path5" />
      <path
         d="M 78.5,30.375 H 34.125 V 37.25 H 78.5 Z"
         fill="#d9d9d9"
         id="path6" />
      <path
         d="M 64.5803,39.3496 H 34.1221 v 4.3512 h 30.4582 z"
         fill="#d9d9d9"
         id="path7" />
    </g>
    <path
       opacity="0.6"
       d="M 49.125,16 H 21 v -5.625 h 28.125 z"
       fill="#d9d9d9"
       id="path8" />
    <path
       fill-rule="evenodd"
       clip-rule="evenodd"
       d="m 87.7188,18.9861 c -0.355,0.1056 -0.6681,0.2859 -0.9275,0.5183 L 86.76,19.3998 c -0.38,-1.289 -1.7356,-2.0267 -3.0225,-1.644 -0.6506,0.1938 -1.1606,0.6369 -1.4568,1.1951 -0.5513,-0.3058 -1.22,-0.3988 -1.87,-0.205 -0.355,0.1055 -0.6682,0.2859 -0.9275,0.5183 l -0.8169,-2.7691 c -0.38,-1.2895 -1.7363,-2.0267 -3.0231,-1.644 -1.2863,0.3828 -2.0238,1.743 -1.6438,3.0324 L 77.01,28.0924 c -2.5837,-0.1333 -2.9043,-0.0381 -3.0856,0.0157 -0.41,0.1221 -1.6575,0.4931 -1.6744,2.4251 -0.0075,0.8397 0.8913,1.3893 1.645,1.7586 l 7.4469,4.1155 0.0675,0.033 c 1.69,0.7098 3.5531,0.7702 5.5363,0.1803 3.8943,-1.1592 7.2231,-4.367 5.88,-8.923 l -2.0844,-7.0675 c -0.38,-1.289 -1.7356,-2.0267 -3.0225,-1.644 z"
       fill="#f8f7f7"
       id="path9" />
    <path
       fill-rule="evenodd"
       clip-rule="evenodd"
       d="m 91.4857,28.0964 c 1.505,5.1016 -4.2731,6.9806 -4.9369,7.1782 -1.6769,0.4988 -3.1713,0.4614 -4.5669,-0.1155 l -7.4437,-4.1128 c -0.6244,-0.3068 -0.83,-0.5049 -0.89,-0.5765 0.0262,-0.8234 0.3543,-0.9211 0.6612,-1.0127 0.1056,-0.0231 0.6781,-0.0852 3.6106,0.0929 l 0.9944,0.0604 -3.575,-12.1257 c -0.1619,-0.5474 0.1531,-1.1248 0.7006,-1.2881 0.5475,-0.1629 1.125,0.1495 1.2863,0.6968 l 1.4256,4.8337 1.2306,4.1758 1.3394,-0.3988 -1.2156,-4.1242 c -0.1613,-0.5474 0.1531,-1.1252 0.7006,-1.2881 0.5475,-0.1629 1.1238,0.1486 1.2856,0.6947 l 1.2175,4.1263 1.3394,-0.3988 -1.2162,-4.1242 c -0.1613,-0.5474 0.1537,-1.1252 0.7012,-1.2881 0.5475,-0.1629 1.1244,0.149 1.2863,0.6969 l 0.5,1.6965 0.1543,0.5235 0.5619,1.9041 1.3394,-0.3988 -0.5612,-1.9037 c -0.1613,-0.5474 0.1531,-1.1253 0.7006,-1.2881 0.5475,-0.163 1.125,0.1494 1.2862,0.6968 z m -3.7669,-9.1103 c -0.355,0.1056 -0.6681,0.2859 -0.9275,0.5183 L 86.76,19.3998 c -0.38,-1.289 -1.7356,-2.0267 -3.0225,-1.644 -0.6506,0.1938 -1.1606,0.6369 -1.4568,1.1951 -0.5513,-0.3058 -1.22,-0.3988 -1.87,-0.205 -0.355,0.1055 -0.6682,0.2859 -0.9275,0.5183 l -0.8169,-2.7691 c -0.38,-1.2895 -1.7363,-2.0267 -3.0231,-1.644 -1.2863,0.3828 -2.0238,1.743 -1.6438,3.0324 L 77.01,28.0924 c -2.5837,-0.1333 -2.9043,-0.0381 -3.0856,0.0157 -0.41,0.1221 -1.6575,0.4931 -1.6744,2.4251 -0.0075,0.8397 0.8913,1.3893 1.645,1.7586 l 7.4469,4.1155 0.0675,0.033 c 1.69,0.7098 3.5531,0.7702 5.5363,0.1803 3.8943,-1.1592 7.2231,-4.367 5.88,-8.923 l -2.0844,-7.0675 c -0.38,-1.289 -1.7356,-2.0267 -3.0225,-1.644 z"
       fill="#000000"
       id="path10" />
  </g>
</svg>
