<svg xmlns="http://www.w3.org/2000/svg" viewBox="0 0 2048 2048" width="32" height="32">
  <path d="M1184 704q0 33-12 62t-35 51-51 34-62 13q-33 0-62-12t-51-35-34-51-13-62q0-33 12-62t35-51 51-34 62-13q33 0 62 12t51 35 34 51 13 62zm512 0q0 33-12 62t-35 51-51 34-62 13q-33 0-62-12t-51-35-34-51-13-62q0-33 12-62t35-51 51-34 62-13q33 0 62 12t51 35 34 51 13 62zM0 0h2048v1106q-29-34-60-64t-68-56V128H128v1152h787q-13 31-22 63t-16 65H0V0zm352 704q0-33 12-62t35-51 51-34 62-13q33 0 62 12t51 35 34 51 13 62q0 33-12 62t-35 51-51 34-62 13q-33 0-62-12t-51-35-34-51-13-62zm1184 320q106 0 199 40t163 109 110 163 40 200q0 106-40 199t-109 163-163 110-200 40q-106 0-199-40t-163-109-110-163-40-200q0-106 40-199t109-163 163-110 200-40zm0 896q79 0 149-30t122-82 83-122 30-150q0-79-30-149t-82-122-123-83-149-30q-80 0-149 30t-122 82-83 123-30 149q0 80 30 149t82 122 122 83 150 30zm0-640v256h192v128h-320v-384h128z" />
</svg>